<svg width="1363" height="163" viewBox="0 0 1363 163" fill="none" xmlns="http://www.w3.org/2000/svg">
<path d="M0 15C0 6.71573 6.71573 0 15 0H37V163H15C6.71573 163 0 156.284 0 148V15Z" fill="#424242"/>
<rect width="1097" height="163" transform="translate(37)" fill="#F0F0F0"/>
<path d="M101.906 53.9219L94.3945 51.2383V48.0859L104.602 52.375V54.6367L101.906 53.9219ZM94.3945 56.1719L101.918 53.4297L104.602 52.7852V55.0352L94.3945 59.3242V56.1719ZM121.781 56.5352C121.781 56.2305 121.734 55.957 121.641 55.7148C121.555 55.4648 121.391 55.2383 121.148 55.0352C120.906 54.8242 120.566 54.6172 120.129 54.4141C119.691 54.2109 119.125 54 118.43 53.7812C117.656 53.5312 116.922 53.25 116.227 52.9375C115.539 52.625 114.93 52.2617 114.398 51.8477C113.875 51.4258 113.461 50.9375 113.156 50.3828C112.859 49.8281 112.711 49.1836 112.711 48.4492C112.711 47.7383 112.867 47.0938 113.18 46.5156C113.492 45.9297 113.93 45.4297 114.492 45.0156C115.055 44.5938 115.719 44.2695 116.484 44.043C117.258 43.8164 118.105 43.7031 119.027 43.7031C120.285 43.7031 121.383 43.9297 122.32 44.3828C123.258 44.8359 123.984 45.457 124.5 46.2461C125.023 47.0352 125.285 47.9375 125.285 48.9531H121.793C121.793 48.4531 121.688 48.0156 121.477 47.6406C121.273 47.2578 120.961 46.957 120.539 46.7383C120.125 46.5195 119.602 46.4102 118.969 46.4102C118.359 46.4102 117.852 46.5039 117.445 46.6914C117.039 46.8711 116.734 47.1172 116.531 47.4297C116.328 47.7344 116.227 48.0781 116.227 48.4609C116.227 48.75 116.297 49.0117 116.438 49.2461C116.586 49.4805 116.805 49.6992 117.094 49.9023C117.383 50.1055 117.738 50.2969 118.16 50.4766C118.582 50.6562 119.07 50.832 119.625 51.0039C120.555 51.2852 121.371 51.6016 122.074 51.9531C122.785 52.3047 123.379 52.6992 123.855 53.1367C124.332 53.5742 124.691 54.0703 124.934 54.625C125.176 55.1797 125.297 55.8086 125.297 56.5117C125.297 57.2539 125.152 57.918 124.863 58.5039C124.574 59.0898 124.156 59.5859 123.609 59.9922C123.062 60.3984 122.41 60.707 121.652 60.918C120.895 61.1289 120.047 61.2344 119.109 61.2344C118.266 61.2344 117.434 61.125 116.613 60.9062C115.793 60.6797 115.047 60.3398 114.375 59.8867C113.711 59.4336 113.18 58.8555 112.781 58.1523C112.383 57.4492 112.184 56.6172 112.184 55.6562H115.711C115.711 56.1875 115.793 56.6367 115.957 57.0039C116.121 57.3711 116.352 57.668 116.648 57.8945C116.953 58.1211 117.312 58.2852 117.727 58.3867C118.148 58.4883 118.609 58.5391 119.109 58.5391C119.719 58.5391 120.219 58.4531 120.609 58.2812C121.008 58.1094 121.301 57.8711 121.488 57.5664C121.684 57.2617 121.781 56.918 121.781 56.5352ZM131.039 48.3203V61H127.652V48.3203H131.039ZM127.441 45.0156C127.441 44.5234 127.613 44.1172 127.957 43.7969C128.301 43.4766 128.762 43.3164 129.34 43.3164C129.91 43.3164 130.367 43.4766 130.711 43.7969C131.062 44.1172 131.238 44.5234 131.238 45.0156C131.238 45.5078 131.062 45.9141 130.711 46.2344C130.367 46.5547 129.91 46.7148 129.34 46.7148C128.762 46.7148 128.301 46.5547 127.957 46.2344C127.613 45.9141 127.441 45.5078 127.441 45.0156ZM137.391 43V61H134.004V43H137.391ZM146.016 61.2344C145.031 61.2344 144.148 61.0781 143.367 60.7656C142.586 60.4453 141.922 60.0039 141.375 59.4414C140.836 58.8789 140.422 58.2266 140.133 57.4844C139.844 56.7344 139.699 55.9375 139.699 55.0938V54.625C139.699 53.6641 139.836 52.7852 140.109 51.9883C140.383 51.1914 140.773 50.5 141.281 49.9141C141.797 49.3281 142.422 48.8789 143.156 48.5664C143.891 48.2461 144.719 48.0859 145.641 48.0859C146.539 48.0859 147.336 48.2344 148.031 48.5312C148.727 48.8281 149.309 49.25 149.777 49.7969C150.254 50.3438 150.613 51 150.855 51.7656C151.098 52.5234 151.219 53.3672 151.219 54.2969V55.7031H141.141V53.4531H147.902V53.1953C147.902 52.7266 147.816 52.3086 147.645 51.9414C147.48 51.5664 147.23 51.2695 146.895 51.0508C146.559 50.832 146.129 50.7227 145.605 50.7227C145.16 50.7227 144.777 50.8203 144.457 51.0156C144.137 51.2109 143.875 51.4844 143.672 51.8359C143.477 52.1875 143.328 52.6016 143.227 53.0781C143.133 53.5469 143.086 54.0625 143.086 54.625V55.0938C143.086 55.6016 143.156 56.0703 143.297 56.5C143.445 56.9297 143.652 57.3008 143.918 57.6133C144.191 57.9258 144.52 58.168 144.902 58.3398C145.293 58.5117 145.734 58.5977 146.227 58.5977C146.836 58.5977 147.402 58.4805 147.926 58.2461C148.457 58.0039 148.914 57.6406 149.297 57.1562L150.938 58.9375C150.672 59.3203 150.309 59.6875 149.848 60.0391C149.395 60.3906 148.848 60.6797 148.207 60.9062C147.566 61.125 146.836 61.2344 146.016 61.2344ZM156.445 51.0273V61H153.07V48.3203H156.234L156.445 51.0273ZM155.953 54.2148H155.039C155.039 53.2773 155.16 52.4336 155.402 51.6836C155.645 50.9258 155.984 50.2812 156.422 49.75C156.859 49.2109 157.379 48.8008 157.98 48.5195C158.59 48.2305 159.27 48.0859 160.02 48.0859C160.613 48.0859 161.156 48.1719 161.648 48.3438C162.141 48.5156 162.562 48.7891 162.914 49.1641C163.273 49.5391 163.547 50.0352 163.734 50.6523C163.93 51.2695 164.027 52.0234 164.027 52.9141V61H160.629V52.9023C160.629 52.3398 160.551 51.9023 160.395 51.5898C160.238 51.2773 160.008 51.0586 159.703 50.9336C159.406 50.8008 159.039 50.7344 158.602 50.7344C158.148 50.7344 157.754 50.8242 157.418 51.0039C157.09 51.1836 156.816 51.4336 156.598 51.7539C156.387 52.0664 156.227 52.4336 156.117 52.8555C156.008 53.2773 155.953 53.7305 155.953 54.2148ZM172.805 48.3203V50.7109H165.422V48.3203H172.805ZM167.25 45.1914H170.625V57.1797C170.625 57.5469 170.672 57.8281 170.766 58.0234C170.867 58.2188 171.016 58.3555 171.211 58.4336C171.406 58.5039 171.652 58.5391 171.949 58.5391C172.16 58.5391 172.348 58.5312 172.512 58.5156C172.684 58.4922 172.828 58.4688 172.945 58.4453L172.957 60.9297C172.668 61.0234 172.355 61.0977 172.02 61.1523C171.684 61.207 171.312 61.2344 170.906 61.2344C170.164 61.2344 169.516 61.1133 168.961 60.8711C168.414 60.6211 167.992 60.2227 167.695 59.6758C167.398 59.1289 167.25 58.4102 167.25 57.5195V45.1914ZM187.559 54.918H183.211V52.1758H187.559C188.23 52.1758 188.777 52.0664 189.199 51.8477C189.621 51.6211 189.93 51.3086 190.125 50.9102C190.32 50.5117 190.418 50.0625 190.418 49.5625C190.418 49.0547 190.32 48.582 190.125 48.1445C189.93 47.707 189.621 47.3555 189.199 47.0898C188.777 46.8242 188.23 46.6914 187.559 46.6914H184.43V61H180.914V43.9375H187.559C188.895 43.9375 190.039 44.1797 190.992 44.6641C191.953 45.1406 192.688 45.8008 193.195 46.6445C193.703 47.4883 193.957 48.4531 193.957 49.5391C193.957 50.6406 193.703 51.5938 193.195 52.3984C192.688 53.2031 191.953 53.8242 190.992 54.2617C190.039 54.6992 188.895 54.918 187.559 54.918ZM199.734 48.3203V61H196.348V48.3203H199.734ZM196.137 45.0156C196.137 44.5234 196.309 44.1172 196.652 43.7969C196.996 43.4766 197.457 43.3164 198.035 43.3164C198.605 43.3164 199.062 43.4766 199.406 43.7969C199.758 44.1172 199.934 44.5234 199.934 45.0156C199.934 45.5078 199.758 45.9141 199.406 46.2344C199.062 46.5547 198.605 46.7148 198.035 46.7148C197.457 46.7148 196.996 46.5547 196.652 46.2344C196.309 45.9141 196.137 45.5078 196.137 45.0156ZM205.242 48.3203L207.34 52.1758L209.496 48.3203H213.094L209.508 54.5195L213.258 61H209.648L207.363 56.9219L205.078 61H201.469L205.219 54.5195L201.633 48.3203H205.242ZM220.336 61.2344C219.352 61.2344 218.469 61.0781 217.688 60.7656C216.906 60.4453 216.242 60.0039 215.695 59.4414C215.156 58.8789 214.742 58.2266 214.453 57.4844C214.164 56.7344 214.02 55.9375 214.02 55.0938V54.625C214.02 53.6641 214.156 52.7852 214.43 51.9883C214.703 51.1914 215.094 50.5 215.602 49.9141C216.117 49.3281 216.742 48.8789 217.477 48.5664C218.211 48.2461 219.039 48.0859 219.961 48.0859C220.859 48.0859 221.656 48.2344 222.352 48.5312C223.047 48.8281 223.629 49.25 224.098 49.7969C224.574 50.3438 224.934 51 225.176 51.7656C225.418 52.5234 225.539 53.3672 225.539 54.2969V55.7031H215.461V53.4531H222.223V53.1953C222.223 52.7266 222.137 52.3086 221.965 51.9414C221.801 51.5664 221.551 51.2695 221.215 51.0508C220.879 50.832 220.449 50.7227 219.926 50.7227C219.48 50.7227 219.098 50.8203 218.777 51.0156C218.457 51.2109 218.195 51.4844 217.992 51.8359C217.797 52.1875 217.648 52.6016 217.547 53.0781C217.453 53.5469 217.406 54.0625 217.406 54.625V55.0938C217.406 55.6016 217.477 56.0703 217.617 56.5C217.766 56.9297 217.973 57.3008 218.238 57.6133C218.512 57.9258 218.84 58.168 219.223 58.3398C219.613 58.5117 220.055 58.5977 220.547 58.5977C221.156 58.5977 221.723 58.4805 222.246 58.2461C222.777 58.0039 223.234 57.6406 223.617 57.1562L225.258 58.9375C224.992 59.3203 224.629 59.6875 224.168 60.0391C223.715 60.3906 223.168 60.6797 222.527 60.9062C221.887 61.125 221.156 61.2344 220.336 61.2344ZM231.023 43V61H227.637V43H231.023Z" fill="#888888"/>
<path d="M106.688 119H99.1172L99.1641 112.672H106.688C108.25 112.672 109.57 112.297 110.648 111.547C111.742 110.797 112.57 109.68 113.133 108.195C113.711 106.695 114 104.852 114 102.664V101.188C114 99.5469 113.836 98.1094 113.508 96.875C113.195 95.625 112.727 94.5859 112.102 93.7578C111.477 92.9141 110.695 92.2812 109.758 91.8594C108.836 91.4375 107.773 91.2266 106.57 91.2266H98.9766V84.875H106.57C108.883 84.875 111 85.2734 112.922 86.0703C114.859 86.8516 116.531 87.9766 117.938 89.4453C119.359 90.8984 120.453 92.625 121.219 94.625C122 96.6094 122.391 98.8125 122.391 101.234V102.664C122.391 105.07 122 107.273 121.219 109.273C120.453 111.273 119.367 113 117.961 114.453C116.555 115.906 114.891 117.031 112.969 117.828C111.062 118.609 108.969 119 106.688 119ZM103.828 84.875V119H95.6016V84.875H103.828ZM138.586 119.469C136.523 119.469 134.68 119.148 133.055 118.508C131.43 117.852 130.055 116.953 128.93 115.812C127.82 114.672 126.969 113.359 126.375 111.875C125.797 110.391 125.508 108.82 125.508 107.164V106.273C125.508 104.414 125.766 102.695 126.281 101.117C126.797 99.5234 127.562 98.1328 128.578 96.9453C129.594 95.7578 130.867 94.8359 132.398 94.1797C133.93 93.5078 135.711 93.1719 137.742 93.1719C139.539 93.1719 141.148 93.4609 142.57 94.0391C143.992 94.6172 145.195 95.4453 146.18 96.5234C147.18 97.6016 147.938 98.9062 148.453 100.438C148.984 101.969 149.25 103.688 149.25 105.594V108.805H128.531V103.859H141.539V103.25C141.555 102.406 141.406 101.688 141.094 101.094C140.797 100.5 140.359 100.047 139.781 99.7344C139.203 99.4219 138.5 99.2656 137.672 99.2656C136.812 99.2656 136.102 99.4531 135.539 99.8281C134.992 100.203 134.562 100.719 134.25 101.375C133.953 102.016 133.742 102.758 133.617 103.602C133.492 104.445 133.43 105.336 133.43 106.273V107.164C133.43 108.102 133.555 108.953 133.805 109.719C134.07 110.484 134.445 111.141 134.93 111.688C135.43 112.219 136.023 112.633 136.711 112.93C137.414 113.227 138.211 113.375 139.102 113.375C140.18 113.375 141.242 113.172 142.289 112.766C143.336 112.359 144.234 111.688 144.984 110.75L148.57 115.016C148.055 115.75 147.32 116.461 146.367 117.148C145.43 117.836 144.305 118.398 142.992 118.836C141.68 119.258 140.211 119.469 138.586 119.469ZM160.43 99.0078V119H152.531V93.6406H159.938L160.43 99.0078ZM159.469 105.453L157.664 105.5C157.664 103.719 157.875 102.078 158.297 100.578C158.719 99.0781 159.344 97.7734 160.172 96.6641C161 95.5547 162.016 94.6953 163.219 94.0859C164.438 93.4766 165.844 93.1719 167.438 93.1719C168.547 93.1719 169.555 93.3438 170.461 93.6875C171.367 94.0156 172.148 94.5391 172.805 95.2578C173.461 95.9609 173.961 96.8828 174.305 98.0234C174.664 99.1484 174.844 100.5 174.844 102.078V119H166.945V103.086C166.945 102.008 166.82 101.195 166.57 100.648C166.336 100.102 165.992 99.7344 165.539 99.5469C165.086 99.3594 164.531 99.2656 163.875 99.2656C163.188 99.2656 162.57 99.4219 162.023 99.7344C161.477 100.047 161.008 100.484 160.617 101.047C160.242 101.594 159.953 102.242 159.75 102.992C159.562 103.742 159.469 104.562 159.469 105.453ZM173.953 105.453L171.75 105.5C171.75 103.719 171.945 102.078 172.336 100.578C172.742 99.0781 173.344 97.7734 174.141 96.6641C174.953 95.5547 175.961 94.6953 177.164 94.0859C178.367 93.4766 179.766 93.1719 181.359 93.1719C182.516 93.1719 183.578 93.3438 184.547 93.6875C185.516 94.0312 186.352 94.5859 187.055 95.3516C187.758 96.1172 188.305 97.1328 188.695 98.3984C189.086 99.6484 189.281 101.195 189.281 103.039V119H181.359V103.039C181.359 101.992 181.234 101.203 180.984 100.672C180.75 100.125 180.406 99.7578 179.953 99.5703C179.5 99.3672 178.961 99.2656 178.336 99.2656C177.586 99.2656 176.938 99.4219 176.391 99.7344C175.844 100.047 175.383 100.484 175.008 101.047C174.648 101.594 174.383 102.242 174.211 102.992C174.039 103.742 173.953 104.562 173.953 105.453ZM192.82 106.578V106.086C192.82 104.227 193.086 102.516 193.617 100.953C194.148 99.375 194.93 98.0078 195.961 96.8516C196.992 95.6953 198.266 94.7969 199.781 94.1562C201.297 93.5 203.047 93.1719 205.031 93.1719C207.031 93.1719 208.789 93.5 210.305 94.1562C211.836 94.7969 213.117 95.6953 214.148 96.8516C215.18 98.0078 215.961 99.375 216.492 100.953C217.023 102.516 217.289 104.227 217.289 106.086V106.578C217.289 108.422 217.023 110.133 216.492 111.711C215.961 113.273 215.18 114.641 214.148 115.812C213.117 116.969 211.844 117.867 210.328 118.508C208.812 119.148 207.062 119.469 205.078 119.469C203.094 119.469 201.336 119.148 199.805 118.508C198.273 117.867 196.992 116.969 195.961 115.812C194.93 114.641 194.148 113.273 193.617 111.711C193.086 110.133 192.82 108.422 192.82 106.578ZM200.719 106.086V106.578C200.719 107.531 200.789 108.422 200.93 109.25C201.07 110.078 201.305 110.805 201.633 111.43C201.961 112.039 202.406 112.516 202.969 112.859C203.531 113.203 204.234 113.375 205.078 113.375C205.906 113.375 206.594 113.203 207.141 112.859C207.703 112.516 208.148 112.039 208.477 111.43C208.805 110.805 209.039 110.078 209.18 109.25C209.32 108.422 209.391 107.531 209.391 106.578V106.086C209.391 105.164 209.32 104.297 209.18 103.484C209.039 102.656 208.805 101.93 208.477 101.305C208.148 100.664 207.703 100.164 207.141 99.8047C206.578 99.4453 205.875 99.2656 205.031 99.2656C204.203 99.2656 203.508 99.4453 202.945 99.8047C202.398 100.164 201.961 100.664 201.633 101.305C201.305 101.93 201.07 102.656 200.93 103.484C200.789 104.297 200.719 105.164 200.719 106.086Z" fill="black"/>
<path d="M1134 0H1348C1356.28 0 1363 6.71573 1363 15V148C1363 156.284 1356.28 163 1348 163H1134V0Z" fill="#0CCE6B"/>
<path d="M1280.07 47.5H1216.93L1214.5 49.9286V113.071L1216.93 115.5H1280.07L1282.5 113.071V49.9286L1280.07 47.5ZM1277.64 110.643H1233.93V100.929H1245.1C1246.56 103.843 1249.96 105.786 1253.36 105.786C1258.7 105.786 1263.07 101.414 1263.07 96.0714C1263.07 90.7286 1258.7 86.3571 1253.36 86.3571C1248.01 86.3571 1243.64 90.7286 1243.64 96.0714H1229.07V110.643H1219.36V52.3571H1229.07V63.5286C1226.16 64.9857 1224.21 68.3857 1224.21 71.7857C1224.21 77.1286 1228.59 81.5 1233.93 81.5C1239.27 81.5 1243.64 77.1286 1243.64 71.7857H1253.36C1253.36 77.1286 1257.73 81.5 1263.07 81.5C1268.41 81.5 1272.79 77.1286 1272.79 71.7857C1272.79 66.4429 1268.41 62.0714 1263.07 62.0714C1259.67 62.0714 1256.27 64.0143 1254.81 66.9286H1242.19C1240.73 64.0143 1237.33 62.0714 1233.93 62.0714V52.3571H1277.64V110.643ZM1248.5 96.0714C1248.5 93.1571 1250.44 91.2143 1253.36 91.2143C1256.27 91.2143 1258.21 93.1571 1258.21 96.0714C1258.21 98.9857 1256.27 100.929 1253.36 100.929C1250.44 100.929 1248.5 98.9857 1248.5 96.0714ZM1233.93 66.9286C1236.84 66.9286 1238.79 68.8714 1238.79 71.7857C1238.79 74.7 1236.84 76.6429 1233.93 76.6429C1231.01 76.6429 1229.07 74.7 1229.07 71.7857C1229.07 68.8714 1231.01 66.9286 1233.93 66.9286ZM1263.07 66.9286C1265.99 66.9286 1267.93 68.8714 1267.93 71.7857C1267.93 74.7 1265.99 76.6429 1263.07 76.6429C1260.16 76.6429 1258.21 74.7 1258.21 71.7857C1258.21 68.8714 1260.16 66.9286 1263.07 66.9286Z" fill="white"/>
</svg>
