<svg width="1363" height="297" viewBox="0 0 1363 297" fill="none" xmlns="http://www.w3.org/2000/svg">
<path d="M0 15C0 6.71573 6.71573 0 15 0H37V297H15C6.71573 297 0 290.284 0 282V15Z" fill="#23488A"/>
<path d="M37 0H1066V297H37V0Z" fill="#F0F0F0"/>
<path d="M97.6934 49.4062H102.158L108.732 68.1973L115.307 49.4062H119.771L110.525 75H106.939L97.6934 49.4062ZM95.2852 49.4062H99.7324L100.541 67.7227V75H95.2852V49.4062ZM117.732 49.4062H122.197V75H116.924V67.7227L117.732 49.4062ZM136.77 70.7109V62.2383C136.77 61.6289 136.67 61.1074 136.471 60.6738C136.271 60.2285 135.961 59.8828 135.539 59.6367C135.129 59.3906 134.596 59.2676 133.939 59.2676C133.377 59.2676 132.891 59.3672 132.48 59.5664C132.07 59.7539 131.754 60.0293 131.531 60.3926C131.309 60.7441 131.197 61.1602 131.197 61.6406H126.135C126.135 60.832 126.322 60.0645 126.697 59.3379C127.072 58.6113 127.617 57.9727 128.332 57.4219C129.047 56.8594 129.896 56.4199 130.881 56.1035C131.877 55.7871 132.99 55.6289 134.221 55.6289C135.697 55.6289 137.01 55.875 138.158 56.3672C139.307 56.8594 140.209 57.5977 140.865 58.582C141.533 59.5664 141.867 60.7969 141.867 62.2734V70.4121C141.867 71.4551 141.932 72.3105 142.061 72.9785C142.189 73.6348 142.377 74.209 142.623 74.7012V75H137.508C137.262 74.4844 137.074 73.8398 136.945 73.0664C136.828 72.2812 136.77 71.4961 136.77 70.7109ZM137.438 63.416L137.473 66.2812H134.643C133.975 66.2812 133.395 66.3574 132.902 66.5098C132.41 66.6621 132.006 66.8789 131.689 67.1602C131.373 67.4297 131.139 67.7461 130.986 68.1094C130.846 68.4727 130.775 68.8711 130.775 69.3047C130.775 69.7383 130.875 70.1309 131.074 70.4824C131.273 70.8223 131.561 71.0918 131.936 71.291C132.311 71.4785 132.75 71.5723 133.254 71.5723C134.016 71.5723 134.678 71.4199 135.24 71.1152C135.803 70.8105 136.236 70.4355 136.541 69.9902C136.857 69.5449 137.021 69.123 137.033 68.7246L138.369 70.8691C138.182 71.3496 137.924 71.8477 137.596 72.3633C137.279 72.8789 136.875 73.3652 136.383 73.8223C135.891 74.2676 135.299 74.6367 134.607 74.9297C133.916 75.2109 133.096 75.3516 132.146 75.3516C130.939 75.3516 129.844 75.1113 128.859 74.6309C127.887 74.1387 127.113 73.4648 126.539 72.6094C125.977 71.7422 125.695 70.7578 125.695 69.6562C125.695 68.6602 125.883 67.7754 126.258 67.002C126.633 66.2285 127.184 65.5781 127.91 65.0508C128.648 64.5117 129.568 64.1074 130.67 63.8379C131.771 63.5566 133.049 63.416 134.502 63.416H137.438ZM151.113 48V75H146.033V48H151.113ZM165.562 70.7109V62.2383C165.562 61.6289 165.463 61.1074 165.264 60.6738C165.064 60.2285 164.754 59.8828 164.332 59.6367C163.922 59.3906 163.389 59.2676 162.732 59.2676C162.17 59.2676 161.684 59.3672 161.273 59.5664C160.863 59.7539 160.547 60.0293 160.324 60.3926C160.102 60.7441 159.99 61.1602 159.99 61.6406H154.928C154.928 60.832 155.115 60.0645 155.49 59.3379C155.865 58.6113 156.41 57.9727 157.125 57.4219C157.84 56.8594 158.689 56.4199 159.674 56.1035C160.67 55.7871 161.783 55.6289 163.014 55.6289C164.49 55.6289 165.803 55.875 166.951 56.3672C168.1 56.8594 169.002 57.5977 169.658 58.582C170.326 59.5664 170.66 60.7969 170.66 62.2734V70.4121C170.66 71.4551 170.725 72.3105 170.854 72.9785C170.982 73.6348 171.17 74.209 171.416 74.7012V75H166.301C166.055 74.4844 165.867 73.8398 165.738 73.0664C165.621 72.2812 165.562 71.4961 165.562 70.7109ZM166.23 63.416L166.266 66.2812H163.436C162.768 66.2812 162.188 66.3574 161.695 66.5098C161.203 66.6621 160.799 66.8789 160.482 67.1602C160.166 67.4297 159.932 67.7461 159.779 68.1094C159.639 68.4727 159.568 68.8711 159.568 69.3047C159.568 69.7383 159.668 70.1309 159.867 70.4824C160.066 70.8223 160.354 71.0918 160.729 71.291C161.104 71.4785 161.543 71.5723 162.047 71.5723C162.809 71.5723 163.471 71.4199 164.033 71.1152C164.596 70.8105 165.029 70.4355 165.334 69.9902C165.65 69.5449 165.814 69.123 165.826 68.7246L167.162 70.8691C166.975 71.3496 166.717 71.8477 166.389 72.3633C166.072 72.8789 165.668 73.3652 165.176 73.8223C164.684 74.2676 164.092 74.6367 163.4 74.9297C162.709 75.2109 161.889 75.3516 160.939 75.3516C159.732 75.3516 158.637 75.1113 157.652 74.6309C156.68 74.1387 155.906 73.4648 155.332 72.6094C154.77 71.7422 154.488 70.7578 154.488 69.6562C154.488 68.6602 154.676 67.7754 155.051 67.002C155.426 66.2285 155.977 65.5781 156.703 65.0508C157.441 64.5117 158.361 64.1074 159.463 63.8379C160.564 63.5566 161.842 63.416 163.295 63.416H166.23ZM179.625 47.9824V75H174.562V47.9824H179.625ZM191.613 55.9805L183.352 65.4023L178.922 69.8848L177.076 66.2285L180.592 61.7637L185.531 55.9805H191.613ZM186.357 75L180.732 66.2109L184.23 63.1523L192.193 75H186.357ZM213.48 53.7832L206.52 75H200.912L210.422 49.4062H213.99L213.48 53.7832ZM219.264 75L212.285 53.7832L211.723 49.4062H215.326L224.889 75H219.264ZM218.947 65.4727V69.6035H205.43V65.4727H218.947ZM235.945 55.9805V59.5664H224.871V55.9805H235.945ZM227.613 51.2871H232.676V69.2695C232.676 69.8203 232.746 70.2422 232.887 70.5352C233.039 70.8281 233.262 71.0332 233.555 71.1504C233.848 71.2559 234.217 71.3086 234.662 71.3086C234.979 71.3086 235.26 71.2969 235.506 71.2734C235.764 71.2383 235.98 71.2031 236.156 71.168L236.174 74.8945C235.74 75.0352 235.271 75.1465 234.768 75.2285C234.264 75.3105 233.707 75.3516 233.098 75.3516C231.984 75.3516 231.012 75.1699 230.18 74.8066C229.359 74.4316 228.727 73.834 228.281 73.0137C227.836 72.1934 227.613 71.1152 227.613 69.7793V51.2871ZM244.172 55.9805V75H239.092V55.9805H244.172ZM238.775 51.0234C238.775 50.2852 239.033 49.6758 239.549 49.1953C240.064 48.7148 240.756 48.4746 241.623 48.4746C242.479 48.4746 243.164 48.7148 243.68 49.1953C244.207 49.6758 244.471 50.2852 244.471 51.0234C244.471 51.7617 244.207 52.3711 243.68 52.8516C243.164 53.332 242.479 53.5723 241.623 53.5723C240.756 53.5723 240.064 53.332 239.549 52.8516C239.033 52.3711 238.775 51.7617 238.775 51.0234ZM257.109 75.3516C255.633 75.3516 254.309 75.1172 253.137 74.6484C251.965 74.168 250.969 73.5059 250.148 72.6621C249.34 71.8184 248.719 70.8398 248.285 69.7266C247.852 68.6016 247.635 67.4062 247.635 66.1406V65.4375C247.635 63.9961 247.84 62.6777 248.25 61.4824C248.66 60.2871 249.246 59.25 250.008 58.3711C250.781 57.4922 251.719 56.8184 252.82 56.3496C253.922 55.8691 255.164 55.6289 256.547 55.6289C257.895 55.6289 259.09 55.8516 260.133 56.2969C261.176 56.7422 262.049 57.375 262.752 58.1953C263.467 59.0156 264.006 60 264.369 61.1484C264.732 62.2852 264.914 63.5508 264.914 64.9453V67.0547H249.797V63.6797H259.939V63.293C259.939 62.5898 259.811 61.9629 259.553 61.4121C259.307 60.8496 258.932 60.4043 258.428 60.0762C257.924 59.748 257.279 59.584 256.494 59.584C255.826 59.584 255.252 59.7305 254.771 60.0234C254.291 60.3164 253.898 60.7266 253.594 61.2539C253.301 61.7812 253.078 62.4023 252.926 63.1172C252.785 63.8203 252.715 64.5938 252.715 65.4375V66.1406C252.715 66.9023 252.82 67.6055 253.031 68.25C253.254 68.8945 253.564 69.4512 253.963 69.9199C254.373 70.3887 254.865 70.752 255.439 71.0098C256.025 71.2676 256.688 71.3965 257.426 71.3965C258.34 71.3965 259.189 71.2207 259.975 70.8691C260.771 70.5059 261.457 69.9609 262.031 69.2344L264.492 71.9062C264.094 72.4805 263.549 73.0312 262.857 73.5586C262.178 74.0859 261.357 74.5195 260.396 74.8594C259.436 75.1875 258.34 75.3516 257.109 75.3516ZM272.736 48V75H267.674V48H272.736ZM272.016 64.8223H270.627C270.639 63.498 270.814 62.2793 271.154 61.166C271.494 60.041 271.98 59.0684 272.613 58.248C273.246 57.416 274.002 56.7715 274.881 56.3145C275.771 55.8574 276.756 55.6289 277.834 55.6289C278.771 55.6289 279.621 55.7637 280.383 56.0332C281.156 56.291 281.818 56.7129 282.369 57.2988C282.932 57.873 283.365 58.6289 283.67 59.5664C283.975 60.5039 284.127 61.6406 284.127 62.9766V75H279.029V62.9414C279.029 62.0977 278.906 61.4355 278.66 60.9551C278.426 60.4629 278.08 60.1172 277.623 59.918C277.178 59.707 276.627 59.6016 275.971 59.6016C275.244 59.6016 274.623 59.7363 274.107 60.0059C273.604 60.2754 273.199 60.6504 272.895 61.1309C272.59 61.5996 272.367 62.1504 272.227 62.7832C272.086 63.416 272.016 64.0957 272.016 64.8223Z" fill="#888888"/>
<path d="M116.543 129.418C116.543 128.798 116.452 128.242 116.27 127.75C116.087 127.24 115.75 126.766 115.258 126.328C114.766 125.891 114.055 125.453 113.125 125.016C112.214 124.56 111.01 124.086 109.516 123.594C107.766 123.01 106.079 122.354 104.457 121.625C102.835 120.878 101.385 120.012 100.109 119.027C98.8333 118.025 97.8216 116.858 97.0742 115.527C96.3268 114.178 95.9531 112.611 95.9531 110.824C95.9531 109.111 96.3359 107.57 97.1016 106.203C97.8672 104.818 98.9336 103.642 100.301 102.676C101.686 101.691 103.309 100.944 105.168 100.434C107.027 99.9049 109.06 99.6406 111.266 99.6406C114.182 99.6406 116.753 100.151 118.977 101.172C121.219 102.174 122.969 103.605 124.227 105.465C125.503 107.306 126.141 109.484 126.141 112H116.598C116.598 110.997 116.388 110.113 115.969 109.348C115.568 108.582 114.957 107.98 114.137 107.543C113.316 107.105 112.286 106.887 111.047 106.887C109.844 106.887 108.832 107.069 108.012 107.434C107.191 107.798 106.572 108.29 106.152 108.91C105.733 109.512 105.523 110.177 105.523 110.906C105.523 111.508 105.688 112.055 106.016 112.547C106.362 113.021 106.845 113.467 107.465 113.887C108.103 114.306 108.868 114.707 109.762 115.09C110.673 115.473 111.694 115.846 112.824 116.211C114.939 116.885 116.816 117.642 118.457 118.48C120.116 119.301 121.51 120.24 122.641 121.297C123.789 122.336 124.655 123.521 125.238 124.852C125.84 126.182 126.141 127.686 126.141 129.363C126.141 131.15 125.794 132.736 125.102 134.121C124.409 135.507 123.415 136.682 122.121 137.648C120.827 138.596 119.277 139.316 117.473 139.809C115.668 140.301 113.654 140.547 111.43 140.547C109.388 140.547 107.374 140.292 105.387 139.781C103.418 139.253 101.632 138.451 100.027 137.375C98.4232 136.281 97.138 134.887 96.1719 133.191C95.224 131.478 94.75 129.445 94.75 127.094H104.375C104.375 128.26 104.53 129.245 104.84 130.047C105.15 130.849 105.605 131.496 106.207 131.988C106.809 132.462 107.547 132.809 108.422 133.027C109.297 133.228 110.299 133.328 111.43 133.328C112.651 133.328 113.635 133.155 114.383 132.809C115.13 132.444 115.677 131.97 116.023 131.387C116.37 130.785 116.543 130.129 116.543 129.418ZM140.387 110.414V140H131.145V110.414H140.387ZM130.598 102.785C130.598 101.473 131.072 100.397 132.02 99.5586C132.967 98.7201 134.198 98.3008 135.711 98.3008C137.224 98.3008 138.454 98.7201 139.402 99.5586C140.35 100.397 140.824 101.473 140.824 102.785C140.824 104.098 140.35 105.173 139.402 106.012C138.454 106.85 137.224 107.27 135.711 107.27C134.198 107.27 132.967 106.85 132.02 106.012C131.072 105.173 130.598 104.098 130.598 102.785ZM155.809 98V140H146.566V98H155.809ZM175.824 140.547C173.418 140.547 171.267 140.173 169.371 139.426C167.475 138.66 165.871 137.612 164.559 136.281C163.264 134.951 162.271 133.419 161.578 131.688C160.904 129.956 160.566 128.124 160.566 126.191V125.152C160.566 122.983 160.867 120.978 161.469 119.137C162.07 117.277 162.964 115.655 164.148 114.27C165.333 112.884 166.819 111.809 168.605 111.043C170.392 110.259 172.47 109.867 174.84 109.867C176.936 109.867 178.814 110.204 180.473 110.879C182.132 111.553 183.535 112.52 184.684 113.777C185.85 115.035 186.734 116.557 187.336 118.344C187.956 120.13 188.266 122.135 188.266 124.359V128.105H164.094V122.336H179.27V121.625C179.288 120.641 179.115 119.802 178.75 119.109C178.404 118.417 177.893 117.888 177.219 117.523C176.544 117.159 175.724 116.977 174.758 116.977C173.755 116.977 172.926 117.195 172.27 117.633C171.632 118.07 171.13 118.672 170.766 119.438C170.419 120.185 170.173 121.051 170.027 122.035C169.882 123.02 169.809 124.059 169.809 125.152V126.191C169.809 127.285 169.954 128.279 170.246 129.172C170.556 130.065 170.993 130.831 171.559 131.469C172.142 132.089 172.835 132.572 173.637 132.918C174.457 133.264 175.387 133.438 176.426 133.438C177.684 133.438 178.923 133.201 180.145 132.727C181.366 132.253 182.414 131.469 183.289 130.375L187.473 135.352C186.871 136.208 186.014 137.038 184.902 137.84C183.809 138.642 182.496 139.298 180.965 139.809C179.434 140.301 177.72 140.547 175.824 140.547ZM201.062 116.73V140H191.848V110.414H200.488L201.062 116.73ZM199.969 124.195L197.809 124.25C197.809 121.99 198.082 119.975 198.629 118.207C199.176 116.421 199.951 114.908 200.953 113.668C201.956 112.428 203.15 111.49 204.535 110.852C205.939 110.195 207.497 109.867 209.211 109.867C210.578 109.867 211.827 110.068 212.957 110.469C214.105 110.87 215.09 111.517 215.91 112.41C216.749 113.303 217.387 114.488 217.824 115.965C218.28 117.423 218.508 119.228 218.508 121.379V140H209.238V121.352C209.238 120.167 209.074 119.264 208.746 118.645C208.418 118.007 207.944 117.569 207.324 117.332C206.704 117.095 205.948 116.977 205.055 116.977C204.107 116.977 203.305 117.159 202.648 117.523C201.992 117.888 201.464 118.398 201.062 119.055C200.68 119.693 200.397 120.449 200.215 121.324C200.051 122.199 199.969 123.156 199.969 124.195ZM239.207 110.414V116.812H221.379V110.414H239.207ZM225.125 103.059H234.34V130.348C234.34 131.132 234.431 131.742 234.613 132.18C234.796 132.599 235.105 132.9 235.543 133.082C235.999 133.246 236.6 133.328 237.348 133.328C237.876 133.328 238.314 133.319 238.66 133.301C239.007 133.264 239.335 133.219 239.645 133.164V139.754C238.861 140.009 238.04 140.201 237.184 140.328C236.327 140.474 235.415 140.547 234.449 140.547C232.48 140.547 230.794 140.237 229.391 139.617C228.005 138.997 226.948 138.022 226.219 136.691C225.49 135.361 225.125 133.629 225.125 131.496V103.059ZM273.141 126.492H263.242V119.082H273.141C274.49 119.082 275.583 118.854 276.422 118.398C277.26 117.943 277.871 117.314 278.254 116.512C278.655 115.691 278.855 114.771 278.855 113.75C278.855 112.656 278.655 111.645 278.254 110.715C277.871 109.785 277.26 109.038 276.422 108.473C275.583 107.889 274.49 107.598 273.141 107.598H266.852V140H257.254V100.188H273.141C276.331 100.188 279.074 100.771 281.371 101.938C283.686 103.104 285.464 104.708 286.703 106.75C287.943 108.773 288.562 111.089 288.562 113.695C288.562 116.266 287.943 118.508 286.703 120.422C285.464 122.336 283.686 123.831 281.371 124.906C279.074 125.964 276.331 126.492 273.141 126.492ZM303.027 110.414V140H293.785V110.414H303.027ZM293.238 102.785C293.238 101.473 293.712 100.397 294.66 99.5586C295.608 98.7201 296.839 98.3008 298.352 98.3008C299.865 98.3008 301.095 98.7201 302.043 99.5586C302.991 100.397 303.465 101.473 303.465 102.785C303.465 104.098 302.991 105.173 302.043 106.012C301.095 106.85 299.865 107.27 298.352 107.27C296.839 107.27 295.608 106.85 294.66 106.012C293.712 105.173 293.238 104.098 293.238 102.785ZM316.535 110.414L320.691 118.562L324.984 110.414H334.555L326.789 124.824L334.965 140H325.312L320.691 131.25L316.098 140H306.445L314.621 124.824L306.883 110.414H316.535ZM351.371 140.547C348.965 140.547 346.814 140.173 344.918 139.426C343.022 138.66 341.418 137.612 340.105 136.281C338.811 134.951 337.818 133.419 337.125 131.688C336.451 129.956 336.113 128.124 336.113 126.191V125.152C336.113 122.983 336.414 120.978 337.016 119.137C337.617 117.277 338.51 115.655 339.695 114.27C340.88 112.884 342.366 111.809 344.152 111.043C345.939 110.259 348.017 109.867 350.387 109.867C352.483 109.867 354.361 110.204 356.02 110.879C357.678 111.553 359.082 112.52 360.23 113.777C361.397 115.035 362.281 116.557 362.883 118.344C363.503 120.13 363.812 122.135 363.812 124.359V128.105H339.641V122.336H354.816V121.625C354.835 120.641 354.661 119.802 354.297 119.109C353.951 118.417 353.44 117.888 352.766 117.523C352.091 117.159 351.271 116.977 350.305 116.977C349.302 116.977 348.473 117.195 347.816 117.633C347.178 118.07 346.677 118.672 346.312 119.438C345.966 120.185 345.72 121.051 345.574 122.035C345.428 123.02 345.355 124.059 345.355 125.152V126.191C345.355 127.285 345.501 128.279 345.793 129.172C346.103 130.065 346.54 130.831 347.105 131.469C347.689 132.089 348.382 132.572 349.184 132.918C350.004 133.264 350.934 133.438 351.973 133.438C353.23 133.438 354.47 133.201 355.691 132.727C356.913 132.253 357.961 131.469 358.836 130.375L363.02 135.352C362.418 136.208 361.561 137.038 360.449 137.84C359.355 138.642 358.043 139.298 356.512 139.809C354.98 140.301 353.267 140.547 351.371 140.547ZM377.293 98V140H368.051V98H377.293Z" fill="black"/>
<rect x="93" y="178" width="917" height="77" rx="10" fill="#D3D3D3"/>
<rect x="111" y="196" width="98" height="41" rx="3" fill="#424242"/>
<rect x="111" y="196" width="98" height="41" rx="3" stroke="#424242" stroke-width="4"/>
<path d="M137.078 210.203V223H133.993V210.203H137.078ZM142.053 215.529V217.902H136.199V215.529H142.053ZM142.554 210.203V212.585H136.199V210.203H142.554ZM146.825 209.5V223H143.854V209.5H146.825ZM154.208 220.688V213.49H157.179V223H154.401L154.208 220.688ZM154.489 218.755L155.263 218.737C155.263 219.376 155.187 219.968 155.034 220.513C154.882 221.052 154.656 221.521 154.357 221.919C154.064 222.317 153.701 222.628 153.268 222.851C152.84 223.067 152.345 223.176 151.782 223.176C151.313 223.176 150.883 223.111 150.49 222.982C150.104 222.848 149.77 222.64 149.488 222.358C149.207 222.071 148.987 221.705 148.829 221.26C148.677 220.809 148.601 220.27 148.601 219.643V213.49H151.562V219.66C151.562 219.871 151.589 220.053 151.642 220.205C151.694 220.357 151.771 220.486 151.87 220.592C151.97 220.691 152.093 220.768 152.239 220.82C152.392 220.867 152.564 220.891 152.758 220.891C153.203 220.891 153.552 220.797 153.804 220.609C154.056 220.422 154.231 220.167 154.331 219.845C154.437 219.522 154.489 219.159 154.489 218.755ZM163.823 213.49V215.547H158.093V213.49H163.823ZM159.297 211.126H162.259V219.897C162.259 220.149 162.288 220.346 162.347 220.486C162.405 220.621 162.505 220.718 162.646 220.776C162.792 220.829 162.985 220.855 163.226 220.855C163.396 220.855 163.536 220.853 163.647 220.847C163.759 220.835 163.864 220.82 163.964 220.803V222.921C163.712 223.003 163.448 223.064 163.173 223.105C162.897 223.152 162.604 223.176 162.294 223.176C161.661 223.176 161.119 223.076 160.668 222.877C160.223 222.678 159.883 222.364 159.648 221.937C159.414 221.509 159.297 220.952 159.297 220.267V211.126ZM170.011 213.49V215.547H164.28V213.49H170.011ZM165.484 211.126H168.446V219.897C168.446 220.149 168.476 220.346 168.534 220.486C168.593 220.621 168.692 220.718 168.833 220.776C168.979 220.829 169.173 220.855 169.413 220.855C169.583 220.855 169.724 220.853 169.835 220.847C169.946 220.835 170.052 220.82 170.151 220.803V222.921C169.899 223.003 169.636 223.064 169.36 223.105C169.085 223.152 168.792 223.176 168.481 223.176C167.849 223.176 167.307 223.076 166.855 222.877C166.41 222.678 166.07 222.364 165.836 221.937C165.602 221.509 165.484 220.952 165.484 220.267V211.126ZM175.794 223.176C175.021 223.176 174.329 223.056 173.72 222.815C173.11 222.569 172.595 222.232 172.173 221.805C171.757 221.377 171.438 220.885 171.215 220.328C170.998 219.771 170.89 219.183 170.89 218.562V218.228C170.89 217.53 170.986 216.886 171.18 216.294C171.373 215.696 171.66 215.175 172.041 214.729C172.422 214.284 172.899 213.938 173.474 213.692C174.048 213.44 174.716 213.314 175.478 213.314C176.151 213.314 176.755 213.423 177.288 213.64C177.821 213.856 178.272 214.167 178.642 214.571C179.017 214.976 179.301 215.465 179.494 216.039C179.693 216.613 179.793 217.258 179.793 217.973V219.177H172.023V217.322H176.901V217.094C176.907 216.777 176.852 216.508 176.734 216.285C176.623 216.062 176.459 215.893 176.242 215.775C176.025 215.658 175.762 215.6 175.451 215.6C175.129 215.6 174.862 215.67 174.651 215.811C174.446 215.951 174.285 216.145 174.168 216.391C174.057 216.631 173.978 216.909 173.931 217.226C173.884 217.542 173.86 217.876 173.86 218.228V218.562C173.86 218.913 173.907 219.232 174.001 219.52C174.101 219.807 174.241 220.053 174.423 220.258C174.61 220.457 174.833 220.612 175.091 220.724C175.354 220.835 175.653 220.891 175.987 220.891C176.392 220.891 176.79 220.814 177.183 220.662C177.575 220.51 177.912 220.258 178.193 219.906L179.538 221.506C179.345 221.781 179.069 222.048 178.712 222.306C178.36 222.563 177.938 222.774 177.446 222.938C176.954 223.097 176.403 223.176 175.794 223.176ZM183.985 215.846V223H181.023V213.49H183.792L183.985 215.846ZM186.798 213.42L186.745 216.171C186.628 216.159 186.47 216.145 186.271 216.127C186.071 216.109 185.904 216.101 185.77 216.101C185.424 216.101 185.125 216.142 184.873 216.224C184.627 216.3 184.422 216.417 184.258 216.575C184.1 216.728 183.982 216.921 183.906 217.155C183.836 217.39 183.804 217.662 183.81 217.973L183.273 217.621C183.273 216.982 183.335 216.402 183.458 215.881C183.587 215.354 183.769 214.899 184.003 214.519C184.237 214.132 184.521 213.836 184.855 213.631C185.189 213.42 185.564 213.314 185.98 213.314C186.127 213.314 186.271 213.323 186.411 213.341C186.558 213.358 186.687 213.385 186.798 213.42Z" fill="white"/>
<rect x="229" y="196" width="130" height="41" rx="3" fill="#424242"/>
<rect x="229" y="196" width="130" height="41" rx="3" stroke="#424242" stroke-width="4"/>
<path d="M260.883 220.627V223H254.062V220.627H260.883ZM255.161 210.203V223H252.076V210.203H255.161ZM260.004 215.283V217.577H254.062V215.283H260.004ZM260.909 210.203V212.585H254.062V210.203H260.909ZM264.521 213.49L265.857 216.109L267.237 213.49H270.313L267.817 218.122L270.445 223H267.343L265.857 220.188L264.381 223H261.278L263.906 218.122L261.419 213.49H264.521ZM274.277 215.318V226.656H271.315V213.49H274.075L274.277 215.318ZM280.113 218.131V218.315C280.113 219.007 280.034 219.648 279.876 220.24C279.718 220.832 279.483 221.348 279.173 221.787C278.862 222.227 278.476 222.569 278.013 222.815C277.556 223.056 277.025 223.176 276.422 223.176C275.854 223.176 275.364 223.05 274.954 222.798C274.544 222.546 274.201 222.197 273.926 221.752C273.65 221.307 273.428 220.797 273.258 220.223C273.088 219.648 272.953 219.042 272.854 218.403V218.166C272.953 217.48 273.088 216.845 273.258 216.259C273.428 215.667 273.65 215.151 273.926 214.712C274.201 214.272 274.541 213.93 274.945 213.684C275.355 213.438 275.845 213.314 276.413 213.314C277.017 213.314 277.547 213.429 278.004 213.657C278.467 213.886 278.854 214.214 279.164 214.642C279.48 215.063 279.718 215.57 279.876 216.162C280.034 216.754 280.113 217.41 280.113 218.131ZM277.151 218.315V218.131C277.151 217.762 277.125 217.425 277.072 217.12C277.02 216.81 276.935 216.54 276.817 216.312C276.706 216.083 276.557 215.907 276.369 215.784C276.182 215.661 275.95 215.6 275.675 215.6C275.358 215.6 275.092 215.649 274.875 215.749C274.664 215.843 274.494 215.989 274.365 216.188C274.242 216.382 274.154 216.625 274.102 216.918C274.055 217.205 274.034 217.542 274.04 217.929V218.649C274.028 219.095 274.072 219.487 274.172 219.827C274.271 220.161 274.444 220.422 274.69 220.609C274.937 220.797 275.271 220.891 275.692 220.891C275.974 220.891 276.208 220.826 276.396 220.697C276.583 220.562 276.732 220.378 276.844 220.144C276.955 219.903 277.034 219.628 277.081 219.317C277.128 219.007 277.151 218.673 277.151 218.315ZM284.42 215.846V223H281.458V213.49H284.227L284.42 215.846ZM287.232 213.42L287.18 216.171C287.062 216.159 286.904 216.145 286.705 216.127C286.506 216.109 286.339 216.101 286.204 216.101C285.858 216.101 285.56 216.142 285.308 216.224C285.062 216.3 284.856 216.417 284.692 216.575C284.534 216.728 284.417 216.921 284.341 217.155C284.271 217.39 284.238 217.662 284.244 217.973L283.708 217.621C283.708 216.982 283.77 216.402 283.893 215.881C284.021 215.354 284.203 214.899 284.438 214.519C284.672 214.132 284.956 213.836 285.29 213.631C285.624 213.42 285.999 213.314 286.415 213.314C286.562 213.314 286.705 213.323 286.846 213.341C286.992 213.358 287.121 213.385 287.232 213.42ZM292.682 223.176C291.908 223.176 291.217 223.056 290.607 222.815C289.998 222.569 289.482 222.232 289.061 221.805C288.645 221.377 288.325 220.885 288.103 220.328C287.886 219.771 287.777 219.183 287.777 218.562V218.228C287.777 217.53 287.874 216.886 288.067 216.294C288.261 215.696 288.548 215.175 288.929 214.729C289.31 214.284 289.787 213.938 290.361 213.692C290.936 213.44 291.604 213.314 292.365 213.314C293.039 213.314 293.643 213.423 294.176 213.64C294.709 213.856 295.16 214.167 295.529 214.571C295.904 214.976 296.188 215.465 296.382 216.039C296.581 216.613 296.681 217.258 296.681 217.973V219.177H288.911V217.322H293.789V217.094C293.795 216.777 293.739 216.508 293.622 216.285C293.511 216.062 293.347 215.893 293.13 215.775C292.913 215.658 292.649 215.6 292.339 215.6C292.017 215.6 291.75 215.67 291.539 215.811C291.334 215.951 291.173 216.145 291.056 216.391C290.944 216.631 290.865 216.909 290.818 217.226C290.771 217.542 290.748 217.876 290.748 218.228V218.562C290.748 218.913 290.795 219.232 290.889 219.52C290.988 219.807 291.129 220.053 291.311 220.258C291.498 220.457 291.721 220.612 291.979 220.724C292.242 220.835 292.541 220.891 292.875 220.891C293.279 220.891 293.678 220.814 294.07 220.662C294.463 220.51 294.8 220.258 295.081 219.906L296.426 221.506C296.232 221.781 295.957 222.048 295.6 222.306C295.248 222.563 294.826 222.774 294.334 222.938C293.842 223.097 293.291 223.176 292.682 223.176ZM302.868 220.328C302.868 220.164 302.812 220.023 302.701 219.906C302.596 219.783 302.408 219.672 302.139 219.572C301.869 219.467 301.491 219.361 301.005 219.256C300.542 219.156 300.105 219.024 299.695 218.86C299.291 218.696 298.937 218.497 298.632 218.263C298.327 218.028 298.087 217.75 297.911 217.428C297.741 217.105 297.656 216.736 297.656 216.32C297.656 215.916 297.741 215.535 297.911 215.178C298.087 214.814 298.342 214.495 298.676 214.22C299.016 213.938 299.429 213.719 299.915 213.561C300.401 213.396 300.955 213.314 301.576 213.314C302.432 213.314 303.17 213.446 303.791 213.71C304.412 213.968 304.89 214.331 305.224 214.8C305.563 215.263 305.733 215.799 305.733 216.408H302.771C302.771 216.168 302.73 215.963 302.648 215.793C302.572 215.623 302.446 215.494 302.271 215.406C302.095 215.312 301.86 215.266 301.567 215.266C301.362 215.266 301.175 215.304 301.005 215.38C300.841 215.456 300.709 215.562 300.609 215.696C300.51 215.831 300.46 215.989 300.46 216.171C300.46 216.3 300.489 216.417 300.548 216.522C300.612 216.622 300.709 216.716 300.838 216.804C300.967 216.886 301.131 216.962 301.33 217.032C301.529 217.097 301.77 217.155 302.051 217.208C302.689 217.325 303.287 217.492 303.844 217.709C304.4 217.926 304.852 218.233 305.197 218.632C305.549 219.03 305.725 219.566 305.725 220.24C305.725 220.662 305.628 221.052 305.435 221.409C305.241 221.761 304.963 222.071 304.6 222.341C304.236 222.604 303.8 222.81 303.29 222.956C302.78 223.103 302.206 223.176 301.567 223.176C300.659 223.176 299.892 223.015 299.265 222.692C298.638 222.364 298.163 221.954 297.841 221.462C297.524 220.964 297.366 220.46 297.366 219.95H300.126C300.138 220.243 300.208 220.483 300.337 220.671C300.472 220.858 300.65 220.996 300.873 221.084C301.096 221.172 301.354 221.216 301.646 221.216C301.916 221.216 302.139 221.178 302.314 221.102C302.496 221.025 302.634 220.923 302.728 220.794C302.821 220.659 302.868 220.504 302.868 220.328ZM312.097 220.328C312.097 220.164 312.041 220.023 311.93 219.906C311.824 219.783 311.637 219.672 311.367 219.572C311.098 219.467 310.72 219.361 310.233 219.256C309.771 219.156 309.334 219.024 308.924 218.86C308.52 218.696 308.165 218.497 307.86 218.263C307.556 218.028 307.315 217.75 307.14 217.428C306.97 217.105 306.885 216.736 306.885 216.32C306.885 215.916 306.97 215.535 307.14 215.178C307.315 214.814 307.57 214.495 307.904 214.22C308.244 213.938 308.657 213.719 309.144 213.561C309.63 213.396 310.184 213.314 310.805 213.314C311.66 213.314 312.398 213.446 313.02 213.71C313.641 213.968 314.118 214.331 314.452 214.8C314.792 215.263 314.962 215.799 314.962 216.408H312C312 216.168 311.959 215.963 311.877 215.793C311.801 215.623 311.675 215.494 311.499 215.406C311.323 215.312 311.089 215.266 310.796 215.266C310.591 215.266 310.403 215.304 310.233 215.38C310.069 215.456 309.938 215.562 309.838 215.696C309.738 215.831 309.688 215.989 309.688 216.171C309.688 216.3 309.718 216.417 309.776 216.522C309.841 216.622 309.938 216.716 310.066 216.804C310.195 216.886 310.359 216.962 310.559 217.032C310.758 217.097 310.998 217.155 311.279 217.208C311.918 217.325 312.516 217.492 313.072 217.709C313.629 217.926 314.08 218.233 314.426 218.632C314.777 219.03 314.953 219.566 314.953 220.24C314.953 220.662 314.856 221.052 314.663 221.409C314.47 221.761 314.191 222.071 313.828 222.341C313.465 222.604 313.028 222.81 312.519 222.956C312.009 223.103 311.435 223.176 310.796 223.176C309.888 223.176 309.12 223.015 308.493 222.692C307.866 222.364 307.392 221.954 307.069 221.462C306.753 220.964 306.595 220.46 306.595 219.95H309.354C309.366 220.243 309.437 220.483 309.565 220.671C309.7 220.858 309.879 220.996 310.102 221.084C310.324 221.172 310.582 221.216 310.875 221.216C311.145 221.216 311.367 221.178 311.543 221.102C311.725 221.025 311.862 220.923 311.956 220.794C312.05 220.659 312.097 220.504 312.097 220.328ZM321.571 218.983V210.203H324.647V218.983C324.647 219.839 324.451 220.58 324.059 221.207C323.672 221.834 323.145 222.32 322.477 222.666C321.814 223.006 321.07 223.176 320.244 223.176C319.389 223.176 318.627 223.032 317.959 222.745C317.297 222.458 316.775 222.016 316.395 221.418C316.02 220.82 315.832 220.059 315.832 219.133H318.926C318.926 219.566 318.976 219.906 319.075 220.152C319.175 220.393 319.321 220.562 319.515 220.662C319.714 220.756 319.957 220.803 320.244 220.803C320.525 220.803 320.763 220.732 320.956 220.592C321.155 220.445 321.308 220.237 321.413 219.968C321.519 219.692 321.571 219.364 321.571 218.983ZM333.199 219.599C333.199 219.399 333.17 219.221 333.111 219.062C333.053 218.898 332.944 218.746 332.786 218.605C332.628 218.465 332.399 218.324 332.101 218.184C331.808 218.037 331.421 217.885 330.94 217.727C330.378 217.539 329.836 217.328 329.314 217.094C328.793 216.854 328.327 216.575 327.917 216.259C327.507 215.937 327.182 215.562 326.941 215.134C326.701 214.7 326.581 214.196 326.581 213.622C326.581 213.071 326.704 212.576 326.95 212.137C327.196 211.691 327.539 211.313 327.979 211.003C328.424 210.687 328.945 210.446 329.543 210.282C330.141 210.112 330.794 210.027 331.503 210.027C332.44 210.027 333.267 210.191 333.981 210.52C334.702 210.842 335.265 211.302 335.669 211.899C336.079 212.491 336.284 213.191 336.284 214H333.217C333.217 213.678 333.149 213.394 333.015 213.147C332.886 212.901 332.689 212.708 332.426 212.567C332.162 212.427 331.831 212.356 331.433 212.356C331.046 212.356 330.721 212.415 330.457 212.532C330.193 212.649 329.994 212.808 329.859 213.007C329.725 213.2 329.657 213.414 329.657 213.648C329.657 213.842 329.71 214.018 329.815 214.176C329.927 214.328 330.082 214.472 330.281 214.606C330.486 214.741 330.732 214.87 331.02 214.993C331.312 215.116 331.641 215.236 332.004 215.354C332.684 215.57 333.287 215.813 333.814 216.083C334.348 216.347 334.796 216.648 335.159 216.988C335.528 217.322 335.807 217.703 335.994 218.131C336.188 218.559 336.284 219.042 336.284 219.581C336.284 220.155 336.173 220.665 335.95 221.11C335.728 221.556 335.408 221.934 334.992 222.244C334.576 222.549 334.078 222.78 333.498 222.938C332.918 223.097 332.271 223.176 331.556 223.176C330.899 223.176 330.252 223.094 329.613 222.93C328.98 222.76 328.406 222.502 327.891 222.156C327.375 221.805 326.962 221.356 326.651 220.812C326.347 220.261 326.194 219.607 326.194 218.852H329.288C329.288 219.227 329.338 219.543 329.438 219.801C329.537 220.059 329.684 220.267 329.877 220.425C330.07 220.577 330.308 220.688 330.589 220.759C330.87 220.823 331.192 220.855 331.556 220.855C331.948 220.855 332.265 220.8 332.505 220.688C332.745 220.571 332.921 220.419 333.032 220.231C333.144 220.038 333.199 219.827 333.199 219.599Z" fill="white"/>
<rect x="379" y="196" width="109" height="41" rx="3" fill="#424242"/>
<rect x="379" y="196" width="109" height="41" rx="3" stroke="#424242" stroke-width="4"/>
<path d="M413.118 210.203V223H410.042L405.516 215.037V223H402.431V210.203H405.516L410.042 218.166V210.203H413.118ZM414.56 218.342V218.157C414.56 217.46 414.659 216.818 414.858 216.232C415.058 215.641 415.351 215.128 415.737 214.694C416.124 214.261 416.602 213.924 417.17 213.684C417.738 213.438 418.395 213.314 419.139 213.314C419.889 213.314 420.548 213.438 421.116 213.684C421.69 213.924 422.171 214.261 422.558 214.694C422.944 215.128 423.237 215.641 423.437 216.232C423.636 216.818 423.735 217.46 423.735 218.157V218.342C423.735 219.033 423.636 219.675 423.437 220.267C423.237 220.853 422.944 221.365 422.558 221.805C422.171 222.238 421.693 222.575 421.125 222.815C420.557 223.056 419.9 223.176 419.156 223.176C418.412 223.176 417.753 223.056 417.179 222.815C416.604 222.575 416.124 222.238 415.737 221.805C415.351 221.365 415.058 220.853 414.858 220.267C414.659 219.675 414.56 219.033 414.56 218.342ZM417.521 218.157V218.342C417.521 218.699 417.548 219.033 417.601 219.344C417.653 219.654 417.741 219.927 417.864 220.161C417.987 220.39 418.154 220.568 418.365 220.697C418.576 220.826 418.84 220.891 419.156 220.891C419.467 220.891 419.725 220.826 419.93 220.697C420.141 220.568 420.308 220.39 420.431 220.161C420.554 219.927 420.642 219.654 420.694 219.344C420.747 219.033 420.773 218.699 420.773 218.342V218.157C420.773 217.812 420.747 217.486 420.694 217.182C420.642 216.871 420.554 216.599 420.431 216.364C420.308 216.124 420.141 215.937 419.93 215.802C419.719 215.667 419.455 215.6 419.139 215.6C418.828 215.6 418.567 215.667 418.356 215.802C418.151 215.937 417.987 216.124 417.864 216.364C417.741 216.599 417.653 216.871 417.601 217.182C417.548 217.486 417.521 217.812 417.521 218.157ZM430.521 220.82V209.5H433.5V223H430.828L430.521 220.82ZM424.685 218.359V218.175C424.685 217.454 424.764 216.798 424.922 216.206C425.08 215.608 425.314 215.096 425.625 214.668C425.936 214.234 426.322 213.9 426.785 213.666C427.248 213.432 427.781 213.314 428.385 213.314C428.924 213.314 429.396 213.44 429.8 213.692C430.204 213.938 430.55 214.284 430.837 214.729C431.124 215.175 431.358 215.696 431.54 216.294C431.722 216.886 431.859 217.524 431.953 218.21V218.43C431.859 219.074 431.722 219.684 431.54 220.258C431.358 220.826 431.124 221.33 430.837 221.77C430.55 222.209 430.201 222.555 429.791 222.807C429.387 223.053 428.912 223.176 428.367 223.176C427.764 223.176 427.23 223.056 426.768 222.815C426.311 222.575 425.927 222.238 425.616 221.805C425.312 221.371 425.08 220.861 424.922 220.275C424.764 219.689 424.685 219.051 424.685 218.359ZM427.646 218.175V218.359C427.646 218.717 427.67 219.048 427.717 219.353C427.764 219.657 427.843 219.927 427.954 220.161C428.071 220.39 428.224 220.568 428.411 220.697C428.604 220.826 428.842 220.891 429.123 220.891C429.504 220.891 429.817 220.8 430.063 220.618C430.315 220.437 430.5 220.179 430.617 219.845C430.74 219.511 430.793 219.118 430.775 218.667V217.973C430.787 217.586 430.761 217.246 430.696 216.953C430.632 216.654 430.529 216.405 430.389 216.206C430.254 216.007 430.081 215.857 429.87 215.758C429.665 215.652 429.422 215.6 429.141 215.6C428.865 215.6 428.631 215.664 428.438 215.793C428.25 215.922 428.098 216.104 427.98 216.338C427.863 216.566 427.778 216.839 427.726 217.155C427.673 217.466 427.646 217.806 427.646 218.175ZM439.784 223.176C439.011 223.176 438.319 223.056 437.71 222.815C437.101 222.569 436.585 222.232 436.163 221.805C435.747 221.377 435.428 220.885 435.205 220.328C434.988 219.771 434.88 219.183 434.88 218.562V218.228C434.88 217.53 434.977 216.886 435.17 216.294C435.363 215.696 435.65 215.175 436.031 214.729C436.412 214.284 436.89 213.938 437.464 213.692C438.038 213.44 438.706 213.314 439.468 213.314C440.142 213.314 440.745 213.423 441.278 213.64C441.812 213.856 442.263 214.167 442.632 214.571C443.007 214.976 443.291 215.465 443.484 216.039C443.684 216.613 443.783 217.258 443.783 217.973V219.177H436.014V217.322H440.892V217.094C440.897 216.777 440.842 216.508 440.725 216.285C440.613 216.062 440.449 215.893 440.232 215.775C440.016 215.658 439.752 215.6 439.441 215.6C439.119 215.6 438.853 215.67 438.642 215.811C438.437 215.951 438.275 216.145 438.158 216.391C438.047 216.631 437.968 216.909 437.921 217.226C437.874 217.542 437.851 217.876 437.851 218.228V218.562C437.851 218.913 437.897 219.232 437.991 219.52C438.091 219.807 438.231 220.053 438.413 220.258C438.601 220.457 438.823 220.612 439.081 220.724C439.345 220.835 439.644 220.891 439.978 220.891C440.382 220.891 440.78 220.814 441.173 220.662C441.565 220.51 441.902 220.258 442.184 219.906L443.528 221.506C443.335 221.781 443.06 222.048 442.702 222.306C442.351 222.563 441.929 222.774 441.437 222.938C440.944 223.097 440.394 223.176 439.784 223.176ZM450.217 218.983V210.203H453.293V218.983C453.293 219.839 453.097 220.58 452.704 221.207C452.317 221.834 451.79 222.32 451.122 222.666C450.46 223.006 449.716 223.176 448.89 223.176C448.034 223.176 447.272 223.032 446.604 222.745C445.942 222.458 445.421 222.016 445.04 221.418C444.665 220.82 444.478 220.059 444.478 219.133H447.571C447.571 219.566 447.621 219.906 447.721 220.152C447.82 220.393 447.967 220.562 448.16 220.662C448.359 220.756 448.603 220.803 448.89 220.803C449.171 220.803 449.408 220.732 449.602 220.592C449.801 220.445 449.953 220.237 450.059 219.968C450.164 219.692 450.217 219.364 450.217 218.983ZM461.845 219.599C461.845 219.399 461.815 219.221 461.757 219.062C461.698 218.898 461.59 218.746 461.432 218.605C461.273 218.465 461.045 218.324 460.746 218.184C460.453 218.037 460.066 217.885 459.586 217.727C459.023 217.539 458.481 217.328 457.96 217.094C457.438 216.854 456.973 216.575 456.562 216.259C456.152 215.937 455.827 215.562 455.587 215.134C455.347 214.7 455.227 214.196 455.227 213.622C455.227 213.071 455.35 212.576 455.596 212.137C455.842 211.691 456.185 211.313 456.624 211.003C457.069 210.687 457.591 210.446 458.188 210.282C458.786 210.112 459.439 210.027 460.148 210.027C461.086 210.027 461.912 210.191 462.627 210.52C463.348 210.842 463.91 211.302 464.314 211.899C464.725 212.491 464.93 213.191 464.93 214H461.862C461.862 213.678 461.795 213.394 461.66 213.147C461.531 212.901 461.335 212.708 461.071 212.567C460.808 212.427 460.477 212.356 460.078 212.356C459.691 212.356 459.366 212.415 459.103 212.532C458.839 212.649 458.64 212.808 458.505 213.007C458.37 213.2 458.303 213.414 458.303 213.648C458.303 213.842 458.355 214.018 458.461 214.176C458.572 214.328 458.728 214.472 458.927 214.606C459.132 214.741 459.378 214.87 459.665 214.993C459.958 215.116 460.286 215.236 460.649 215.354C461.329 215.57 461.933 215.813 462.46 216.083C462.993 216.347 463.441 216.648 463.805 216.988C464.174 217.322 464.452 217.703 464.64 218.131C464.833 218.559 464.93 219.042 464.93 219.581C464.93 220.155 464.818 220.665 464.596 221.11C464.373 221.556 464.054 221.934 463.638 222.244C463.222 222.549 462.724 222.78 462.144 222.938C461.563 223.097 460.916 223.176 460.201 223.176C459.545 223.176 458.897 223.094 458.259 222.93C457.626 222.76 457.052 222.502 456.536 222.156C456.021 221.805 455.607 221.356 455.297 220.812C454.992 220.261 454.84 219.607 454.84 218.852H457.934C457.934 219.227 457.983 219.543 458.083 219.801C458.183 220.059 458.329 220.267 458.522 220.425C458.716 220.577 458.953 220.688 459.234 220.759C459.516 220.823 459.838 220.855 460.201 220.855C460.594 220.855 460.91 220.8 461.15 220.688C461.391 220.571 461.566 220.419 461.678 220.231C461.789 220.038 461.845 219.827 461.845 219.599Z" fill="white"/>
<path d="M1066 0H1348C1356.28 0 1363 6.71573 1363 15V282C1363 290.284 1356.28 297 1348 297H1066V0Z" fill="white"/>
</svg>
