<svg width="1363" height="163" viewBox="0 0 1363 163" fill="none" xmlns="http://www.w3.org/2000/svg">
<path d="M0 15C0 6.71573 6.71573 0 15 0H37V163H15C6.71573 163 0 156.284 0 148V15Z" fill="#424242"/>
<rect width="1097" height="163" transform="translate(37)" fill="#F0F0F0"/>
<path d="M101.906 53.9219L94.3945 51.2383V48.0859L104.602 52.375V54.6367L101.906 53.9219ZM94.3945 56.1719L101.918 53.4297L104.602 52.7852V55.0352L94.3945 59.3242V56.1719ZM121.781 56.5352C121.781 56.2305 121.734 55.957 121.641 55.7148C121.555 55.4648 121.391 55.2383 121.148 55.0352C120.906 54.8242 120.566 54.6172 120.129 54.4141C119.691 54.2109 119.125 54 118.43 53.7812C117.656 53.5312 116.922 53.25 116.227 52.9375C115.539 52.625 114.93 52.2617 114.398 51.8477C113.875 51.4258 113.461 50.9375 113.156 50.3828C112.859 49.8281 112.711 49.1836 112.711 48.4492C112.711 47.7383 112.867 47.0938 113.18 46.5156C113.492 45.9297 113.93 45.4297 114.492 45.0156C115.055 44.5938 115.719 44.2695 116.484 44.043C117.258 43.8164 118.105 43.7031 119.027 43.7031C120.285 43.7031 121.383 43.9297 122.32 44.3828C123.258 44.8359 123.984 45.457 124.5 46.2461C125.023 47.0352 125.285 47.9375 125.285 48.9531H121.793C121.793 48.4531 121.688 48.0156 121.477 47.6406C121.273 47.2578 120.961 46.957 120.539 46.7383C120.125 46.5195 119.602 46.4102 118.969 46.4102C118.359 46.4102 117.852 46.5039 117.445 46.6914C117.039 46.8711 116.734 47.1172 116.531 47.4297C116.328 47.7344 116.227 48.0781 116.227 48.4609C116.227 48.75 116.297 49.0117 116.438 49.2461C116.586 49.4805 116.805 49.6992 117.094 49.9023C117.383 50.1055 117.738 50.2969 118.16 50.4766C118.582 50.6562 119.07 50.832 119.625 51.0039C120.555 51.2852 121.371 51.6016 122.074 51.9531C122.785 52.3047 123.379 52.6992 123.855 53.1367C124.332 53.5742 124.691 54.0703 124.934 54.625C125.176 55.1797 125.297 55.8086 125.297 56.5117C125.297 57.2539 125.152 57.918 124.863 58.5039C124.574 59.0898 124.156 59.5859 123.609 59.9922C123.062 60.3984 122.41 60.707 121.652 60.918C120.895 61.1289 120.047 61.2344 119.109 61.2344C118.266 61.2344 117.434 61.125 116.613 60.9062C115.793 60.6797 115.047 60.3398 114.375 59.8867C113.711 59.4336 113.18 58.8555 112.781 58.1523C112.383 57.4492 112.184 56.6172 112.184 55.6562H115.711C115.711 56.1875 115.793 56.6367 115.957 57.0039C116.121 57.3711 116.352 57.668 116.648 57.8945C116.953 58.1211 117.312 58.2852 117.727 58.3867C118.148 58.4883 118.609 58.5391 119.109 58.5391C119.719 58.5391 120.219 58.4531 120.609 58.2812C121.008 58.1094 121.301 57.8711 121.488 57.5664C121.684 57.2617 121.781 56.918 121.781 56.5352ZM131.039 48.3203V61H127.652V48.3203H131.039ZM127.441 45.0156C127.441 44.5234 127.613 44.1172 127.957 43.7969C128.301 43.4766 128.762 43.3164 129.34 43.3164C129.91 43.3164 130.367 43.4766 130.711 43.7969C131.062 44.1172 131.238 44.5234 131.238 45.0156C131.238 45.5078 131.062 45.9141 130.711 46.2344C130.367 46.5547 129.91 46.7148 129.34 46.7148C128.762 46.7148 128.301 46.5547 127.957 46.2344C127.613 45.9141 127.441 45.5078 127.441 45.0156ZM137.391 43V61H134.004V43H137.391ZM146.016 61.2344C145.031 61.2344 144.148 61.0781 143.367 60.7656C142.586 60.4453 141.922 60.0039 141.375 59.4414C140.836 58.8789 140.422 58.2266 140.133 57.4844C139.844 56.7344 139.699 55.9375 139.699 55.0938V54.625C139.699 53.6641 139.836 52.7852 140.109 51.9883C140.383 51.1914 140.773 50.5 141.281 49.9141C141.797 49.3281 142.422 48.8789 143.156 48.5664C143.891 48.2461 144.719 48.0859 145.641 48.0859C146.539 48.0859 147.336 48.2344 148.031 48.5312C148.727 48.8281 149.309 49.25 149.777 49.7969C150.254 50.3438 150.613 51 150.855 51.7656C151.098 52.5234 151.219 53.3672 151.219 54.2969V55.7031H141.141V53.4531H147.902V53.1953C147.902 52.7266 147.816 52.3086 147.645 51.9414C147.48 51.5664 147.23 51.2695 146.895 51.0508C146.559 50.832 146.129 50.7227 145.605 50.7227C145.16 50.7227 144.777 50.8203 144.457 51.0156C144.137 51.2109 143.875 51.4844 143.672 51.8359C143.477 52.1875 143.328 52.6016 143.227 53.0781C143.133 53.5469 143.086 54.0625 143.086 54.625V55.0938C143.086 55.6016 143.156 56.0703 143.297 56.5C143.445 56.9297 143.652 57.3008 143.918 57.6133C144.191 57.9258 144.52 58.168 144.902 58.3398C145.293 58.5117 145.734 58.5977 146.227 58.5977C146.836 58.5977 147.402 58.4805 147.926 58.2461C148.457 58.0039 148.914 57.6406 149.297 57.1562L150.938 58.9375C150.672 59.3203 150.309 59.6875 149.848 60.0391C149.395 60.3906 148.848 60.6797 148.207 60.9062C147.566 61.125 146.836 61.2344 146.016 61.2344ZM156.445 51.0273V61H153.07V48.3203H156.234L156.445 51.0273ZM155.953 54.2148H155.039C155.039 53.2773 155.16 52.4336 155.402 51.6836C155.645 50.9258 155.984 50.2812 156.422 49.75C156.859 49.2109 157.379 48.8008 157.98 48.5195C158.59 48.2305 159.27 48.0859 160.02 48.0859C160.613 48.0859 161.156 48.1719 161.648 48.3438C162.141 48.5156 162.562 48.7891 162.914 49.1641C163.273 49.5391 163.547 50.0352 163.734 50.6523C163.93 51.2695 164.027 52.0234 164.027 52.9141V61H160.629V52.9023C160.629 52.3398 160.551 51.9023 160.395 51.5898C160.238 51.2773 160.008 51.0586 159.703 50.9336C159.406 50.8008 159.039 50.7344 158.602 50.7344C158.148 50.7344 157.754 50.8242 157.418 51.0039C157.09 51.1836 156.816 51.4336 156.598 51.7539C156.387 52.0664 156.227 52.4336 156.117 52.8555C156.008 53.2773 155.953 53.7305 155.953 54.2148ZM172.805 48.3203V50.7109H165.422V48.3203H172.805ZM167.25 45.1914H170.625V57.1797C170.625 57.5469 170.672 57.8281 170.766 58.0234C170.867 58.2188 171.016 58.3555 171.211 58.4336C171.406 58.5039 171.652 58.5391 171.949 58.5391C172.16 58.5391 172.348 58.5312 172.512 58.5156C172.684 58.4922 172.828 58.4688 172.945 58.4453L172.957 60.9297C172.668 61.0234 172.355 61.0977 172.02 61.1523C171.684 61.207 171.312 61.2344 170.906 61.2344C170.164 61.2344 169.516 61.1133 168.961 60.8711C168.414 60.6211 167.992 60.2227 167.695 59.6758C167.398 59.1289 167.25 58.4102 167.25 57.5195V45.1914ZM187.559 54.918H183.211V52.1758H187.559C188.23 52.1758 188.777 52.0664 189.199 51.8477C189.621 51.6211 189.93 51.3086 190.125 50.9102C190.32 50.5117 190.418 50.0625 190.418 49.5625C190.418 49.0547 190.32 48.582 190.125 48.1445C189.93 47.707 189.621 47.3555 189.199 47.0898C188.777 46.8242 188.23 46.6914 187.559 46.6914H184.43V61H180.914V43.9375H187.559C188.895 43.9375 190.039 44.1797 190.992 44.6641C191.953 45.1406 192.688 45.8008 193.195 46.6445C193.703 47.4883 193.957 48.4531 193.957 49.5391C193.957 50.6406 193.703 51.5938 193.195 52.3984C192.688 53.2031 191.953 53.8242 190.992 54.2617C190.039 54.6992 188.895 54.918 187.559 54.918ZM199.734 48.3203V61H196.348V48.3203H199.734ZM196.137 45.0156C196.137 44.5234 196.309 44.1172 196.652 43.7969C196.996 43.4766 197.457 43.3164 198.035 43.3164C198.605 43.3164 199.062 43.4766 199.406 43.7969C199.758 44.1172 199.934 44.5234 199.934 45.0156C199.934 45.5078 199.758 45.9141 199.406 46.2344C199.062 46.5547 198.605 46.7148 198.035 46.7148C197.457 46.7148 196.996 46.5547 196.652 46.2344C196.309 45.9141 196.137 45.5078 196.137 45.0156ZM205.242 48.3203L207.34 52.1758L209.496 48.3203H213.094L209.508 54.5195L213.258 61H209.648L207.363 56.9219L205.078 61H201.469L205.219 54.5195L201.633 48.3203H205.242ZM220.336 61.2344C219.352 61.2344 218.469 61.0781 217.688 60.7656C216.906 60.4453 216.242 60.0039 215.695 59.4414C215.156 58.8789 214.742 58.2266 214.453 57.4844C214.164 56.7344 214.02 55.9375 214.02 55.0938V54.625C214.02 53.6641 214.156 52.7852 214.43 51.9883C214.703 51.1914 215.094 50.5 215.602 49.9141C216.117 49.3281 216.742 48.8789 217.477 48.5664C218.211 48.2461 219.039 48.0859 219.961 48.0859C220.859 48.0859 221.656 48.2344 222.352 48.5312C223.047 48.8281 223.629 49.25 224.098 49.7969C224.574 50.3438 224.934 51 225.176 51.7656C225.418 52.5234 225.539 53.3672 225.539 54.2969V55.7031H215.461V53.4531H222.223V53.1953C222.223 52.7266 222.137 52.3086 221.965 51.9414C221.801 51.5664 221.551 51.2695 221.215 51.0508C220.879 50.832 220.449 50.7227 219.926 50.7227C219.48 50.7227 219.098 50.8203 218.777 51.0156C218.457 51.2109 218.195 51.4844 217.992 51.8359C217.797 52.1875 217.648 52.6016 217.547 53.0781C217.453 53.5469 217.406 54.0625 217.406 54.625V55.0938C217.406 55.6016 217.477 56.0703 217.617 56.5C217.766 56.9297 217.973 57.3008 218.238 57.6133C218.512 57.9258 218.84 58.168 219.223 58.3398C219.613 58.5117 220.055 58.5977 220.547 58.5977C221.156 58.5977 221.723 58.4805 222.246 58.2461C222.777 58.0039 223.234 57.6406 223.617 57.1562L225.258 58.9375C224.992 59.3203 224.629 59.6875 224.168 60.0391C223.715 60.3906 223.168 60.6797 222.527 60.9062C221.887 61.125 221.156 61.2344 220.336 61.2344ZM231.023 43V61H227.637V43H231.023Z" fill="#888888"/>
<path d="M114.117 84.875H122.344V107.164C122.344 109.82 121.789 112.07 120.68 113.914C119.57 115.742 118.016 117.125 116.016 118.062C114.016 119 111.664 119.469 108.961 119.469C106.289 119.469 103.938 119 101.906 118.062C99.8906 117.125 98.3125 115.742 97.1719 113.914C96.0469 112.07 95.4844 109.82 95.4844 107.164V84.875H103.734V107.164C103.734 108.57 103.938 109.719 104.344 110.609C104.75 111.484 105.344 112.125 106.125 112.531C106.906 112.938 107.852 113.141 108.961 113.141C110.086 113.141 111.031 112.938 111.797 112.531C112.562 112.125 113.141 111.484 113.531 110.609C113.922 109.719 114.117 108.57 114.117 107.164V84.875ZM136.266 84.875V119H128.062V84.875H136.266ZM172.523 84.875H180.75V107.164C180.75 109.82 180.195 112.07 179.086 113.914C177.977 115.742 176.422 117.125 174.422 118.062C172.422 119 170.07 119.469 167.367 119.469C164.695 119.469 162.344 119 160.312 118.062C158.297 117.125 156.719 115.742 155.578 113.914C154.453 112.07 153.891 109.82 153.891 107.164V84.875H162.141V107.164C162.141 108.57 162.344 109.719 162.75 110.609C163.156 111.484 163.75 112.125 164.531 112.531C165.312 112.938 166.258 113.141 167.367 113.141C168.492 113.141 169.438 112.938 170.203 112.531C170.969 112.125 171.547 111.484 171.938 110.609C172.328 109.719 172.523 108.57 172.523 107.164V84.875ZM193.078 84.875L198.656 96.2188L204.234 84.875H213.609L204.094 101.797L213.867 119H204.398L198.656 107.445L192.914 119H183.422L193.219 101.797L183.68 84.875H193.078Z" fill="black"/>
<path d="M1134 0H1348C1356.28 0 1363 6.71573 1363 15V148C1363 156.284 1356.28 163 1348 163H1134V0Z" fill="#23488A"/>
<path d="M1248.5 111.917C1244.51 111.917 1240.55 111.13 1236.86 109.601C1233.17 108.073 1229.82 105.832 1226.99 103.008C1221.29 97.3036 1218.08 89.567 1218.08 81.5C1218.08 73.433 1221.29 65.6964 1226.99 59.9922C1232.7 54.2879 1240.43 51.0833 1248.5 51.0833C1265.23 51.0833 1278.92 63.25 1278.92 78.4583C1278.92 83.2985 1276.99 87.9405 1273.57 91.363C1270.15 94.7856 1265.51 96.7083 1260.67 96.7083H1255.19C1254.28 96.7083 1253.67 97.3167 1253.67 98.2292C1253.67 98.5333 1253.97 98.8375 1253.97 99.1417C1255.19 100.662 1255.8 102.487 1255.8 104.312C1256.1 108.571 1252.76 111.917 1248.5 111.917ZM1248.5 57.1667C1242.05 57.1667 1235.86 59.7303 1231.29 64.2937C1226.73 68.8571 1224.17 75.0464 1224.17 81.5C1224.17 87.9536 1226.73 94.1429 1231.29 98.7063C1235.86 103.27 1242.05 105.833 1248.5 105.833C1249.41 105.833 1250.02 105.225 1250.02 104.312C1250.02 103.704 1249.72 103.4 1249.72 103.096C1248.5 101.575 1247.89 100.054 1247.89 98.2292C1247.89 93.9708 1251.24 90.625 1255.5 90.625H1260.67C1263.89 90.625 1266.99 89.3432 1269.27 87.0615C1271.55 84.7798 1272.83 81.6851 1272.83 78.4583C1272.83 66.5958 1261.88 57.1667 1248.5 57.1667ZM1231.77 75.4167C1234.2 75.4167 1236.33 77.5458 1236.33 79.9792C1236.33 82.4125 1234.2 84.5417 1231.77 84.5417C1229.34 84.5417 1227.21 82.4125 1227.21 79.9792C1227.21 77.5458 1229.34 75.4167 1231.77 75.4167ZM1240.9 63.25C1243.33 63.25 1245.46 65.3792 1245.46 67.8125C1245.46 70.2458 1243.33 72.375 1240.9 72.375C1238.46 72.375 1236.33 70.2458 1236.33 67.8125C1236.33 65.3792 1238.46 63.25 1240.9 63.25ZM1256.1 63.25C1258.54 63.25 1260.67 65.3792 1260.67 67.8125C1260.67 70.2458 1258.54 72.375 1256.1 72.375C1253.67 72.375 1251.54 70.2458 1251.54 67.8125C1251.54 65.3792 1253.67 63.25 1256.1 63.25ZM1265.23 75.4167C1267.66 75.4167 1269.79 77.5458 1269.79 79.9792C1269.79 82.4125 1267.66 84.5417 1265.23 84.5417C1262.8 84.5417 1260.67 82.4125 1260.67 79.9792C1260.67 77.5458 1262.8 75.4167 1265.23 75.4167Z" fill="white"/>
</svg>
