<svg width="1363" height="163" viewBox="0 0 1363 163" fill="none" xmlns="http://www.w3.org/2000/svg">
<path d="M0 15C0 6.71573 6.71573 0 15 0H37V163H15C6.71573 163 0 156.284 0 148V15Z" fill="#424242"/>
<rect width="1097" height="163" transform="translate(37)" fill="#F0F0F0"/>
<path d="M101.906 53.9219L94.3945 51.2383V48.0859L104.602 52.375V54.6367L101.906 53.9219ZM94.3945 56.1719L101.918 53.4297L104.602 52.7852V55.0352L94.3945 59.3242V56.1719ZM121.781 56.5352C121.781 56.2305 121.734 55.957 121.641 55.7148C121.555 55.4648 121.391 55.2383 121.148 55.0352C120.906 54.8242 120.566 54.6172 120.129 54.4141C119.691 54.2109 119.125 54 118.43 53.7812C117.656 53.5312 116.922 53.25 116.227 52.9375C115.539 52.625 114.93 52.2617 114.398 51.8477C113.875 51.4258 113.461 50.9375 113.156 50.3828C112.859 49.8281 112.711 49.1836 112.711 48.4492C112.711 47.7383 112.867 47.0938 113.18 46.5156C113.492 45.9297 113.93 45.4297 114.492 45.0156C115.055 44.5938 115.719 44.2695 116.484 44.043C117.258 43.8164 118.105 43.7031 119.027 43.7031C120.285 43.7031 121.383 43.9297 122.32 44.3828C123.258 44.8359 123.984 45.457 124.5 46.2461C125.023 47.0352 125.285 47.9375 125.285 48.9531H121.793C121.793 48.4531 121.688 48.0156 121.477 47.6406C121.273 47.2578 120.961 46.957 120.539 46.7383C120.125 46.5195 119.602 46.4102 118.969 46.4102C118.359 46.4102 117.852 46.5039 117.445 46.6914C117.039 46.8711 116.734 47.1172 116.531 47.4297C116.328 47.7344 116.227 48.0781 116.227 48.4609C116.227 48.75 116.297 49.0117 116.438 49.2461C116.586 49.4805 116.805 49.6992 117.094 49.9023C117.383 50.1055 117.738 50.2969 118.16 50.4766C118.582 50.6562 119.07 50.832 119.625 51.0039C120.555 51.2852 121.371 51.6016 122.074 51.9531C122.785 52.3047 123.379 52.6992 123.855 53.1367C124.332 53.5742 124.691 54.0703 124.934 54.625C125.176 55.1797 125.297 55.8086 125.297 56.5117C125.297 57.2539 125.152 57.918 124.863 58.5039C124.574 59.0898 124.156 59.5859 123.609 59.9922C123.062 60.3984 122.41 60.707 121.652 60.918C120.895 61.1289 120.047 61.2344 119.109 61.2344C118.266 61.2344 117.434 61.125 116.613 60.9062C115.793 60.6797 115.047 60.3398 114.375 59.8867C113.711 59.4336 113.18 58.8555 112.781 58.1523C112.383 57.4492 112.184 56.6172 112.184 55.6562H115.711C115.711 56.1875 115.793 56.6367 115.957 57.0039C116.121 57.3711 116.352 57.668 116.648 57.8945C116.953 58.1211 117.312 58.2852 117.727 58.3867C118.148 58.4883 118.609 58.5391 119.109 58.5391C119.719 58.5391 120.219 58.4531 120.609 58.2812C121.008 58.1094 121.301 57.8711 121.488 57.5664C121.684 57.2617 121.781 56.918 121.781 56.5352ZM131.039 48.3203V61H127.652V48.3203H131.039ZM127.441 45.0156C127.441 44.5234 127.613 44.1172 127.957 43.7969C128.301 43.4766 128.762 43.3164 129.34 43.3164C129.91 43.3164 130.367 43.4766 130.711 43.7969C131.062 44.1172 131.238 44.5234 131.238 45.0156C131.238 45.5078 131.062 45.9141 130.711 46.2344C130.367 46.5547 129.91 46.7148 129.34 46.7148C128.762 46.7148 128.301 46.5547 127.957 46.2344C127.613 45.9141 127.441 45.5078 127.441 45.0156ZM137.391 43V61H134.004V43H137.391ZM146.016 61.2344C145.031 61.2344 144.148 61.0781 143.367 60.7656C142.586 60.4453 141.922 60.0039 141.375 59.4414C140.836 58.8789 140.422 58.2266 140.133 57.4844C139.844 56.7344 139.699 55.9375 139.699 55.0938V54.625C139.699 53.6641 139.836 52.7852 140.109 51.9883C140.383 51.1914 140.773 50.5 141.281 49.9141C141.797 49.3281 142.422 48.8789 143.156 48.5664C143.891 48.2461 144.719 48.0859 145.641 48.0859C146.539 48.0859 147.336 48.2344 148.031 48.5312C148.727 48.8281 149.309 49.25 149.777 49.7969C150.254 50.3438 150.613 51 150.855 51.7656C151.098 52.5234 151.219 53.3672 151.219 54.2969V55.7031H141.141V53.4531H147.902V53.1953C147.902 52.7266 147.816 52.3086 147.645 51.9414C147.48 51.5664 147.23 51.2695 146.895 51.0508C146.559 50.832 146.129 50.7227 145.605 50.7227C145.16 50.7227 144.777 50.8203 144.457 51.0156C144.137 51.2109 143.875 51.4844 143.672 51.8359C143.477 52.1875 143.328 52.6016 143.227 53.0781C143.133 53.5469 143.086 54.0625 143.086 54.625V55.0938C143.086 55.6016 143.156 56.0703 143.297 56.5C143.445 56.9297 143.652 57.3008 143.918 57.6133C144.191 57.9258 144.52 58.168 144.902 58.3398C145.293 58.5117 145.734 58.5977 146.227 58.5977C146.836 58.5977 147.402 58.4805 147.926 58.2461C148.457 58.0039 148.914 57.6406 149.297 57.1562L150.938 58.9375C150.672 59.3203 150.309 59.6875 149.848 60.0391C149.395 60.3906 148.848 60.6797 148.207 60.9062C147.566 61.125 146.836 61.2344 146.016 61.2344ZM156.445 51.0273V61H153.07V48.3203H156.234L156.445 51.0273ZM155.953 54.2148H155.039C155.039 53.2773 155.16 52.4336 155.402 51.6836C155.645 50.9258 155.984 50.2812 156.422 49.75C156.859 49.2109 157.379 48.8008 157.98 48.5195C158.59 48.2305 159.27 48.0859 160.02 48.0859C160.613 48.0859 161.156 48.1719 161.648 48.3438C162.141 48.5156 162.562 48.7891 162.914 49.1641C163.273 49.5391 163.547 50.0352 163.734 50.6523C163.93 51.2695 164.027 52.0234 164.027 52.9141V61H160.629V52.9023C160.629 52.3398 160.551 51.9023 160.395 51.5898C160.238 51.2773 160.008 51.0586 159.703 50.9336C159.406 50.8008 159.039 50.7344 158.602 50.7344C158.148 50.7344 157.754 50.8242 157.418 51.0039C157.09 51.1836 156.816 51.4336 156.598 51.7539C156.387 52.0664 156.227 52.4336 156.117 52.8555C156.008 53.2773 155.953 53.7305 155.953 54.2148ZM172.805 48.3203V50.7109H165.422V48.3203H172.805ZM167.25 45.1914H170.625V57.1797C170.625 57.5469 170.672 57.8281 170.766 58.0234C170.867 58.2188 171.016 58.3555 171.211 58.4336C171.406 58.5039 171.652 58.5391 171.949 58.5391C172.16 58.5391 172.348 58.5312 172.512 58.5156C172.684 58.4922 172.828 58.4688 172.945 58.4453L172.957 60.9297C172.668 61.0234 172.355 61.0977 172.02 61.1523C171.684 61.207 171.312 61.2344 170.906 61.2344C170.164 61.2344 169.516 61.1133 168.961 60.8711C168.414 60.6211 167.992 60.2227 167.695 59.6758C167.398 59.1289 167.25 58.4102 167.25 57.5195V45.1914ZM187.559 54.918H183.211V52.1758H187.559C188.23 52.1758 188.777 52.0664 189.199 51.8477C189.621 51.6211 189.93 51.3086 190.125 50.9102C190.32 50.5117 190.418 50.0625 190.418 49.5625C190.418 49.0547 190.32 48.582 190.125 48.1445C189.93 47.707 189.621 47.3555 189.199 47.0898C188.777 46.8242 188.23 46.6914 187.559 46.6914H184.43V61H180.914V43.9375H187.559C188.895 43.9375 190.039 44.1797 190.992 44.6641C191.953 45.1406 192.688 45.8008 193.195 46.6445C193.703 47.4883 193.957 48.4531 193.957 49.5391C193.957 50.6406 193.703 51.5938 193.195 52.3984C192.688 53.2031 191.953 53.8242 190.992 54.2617C190.039 54.6992 188.895 54.918 187.559 54.918ZM199.734 48.3203V61H196.348V48.3203H199.734ZM196.137 45.0156C196.137 44.5234 196.309 44.1172 196.652 43.7969C196.996 43.4766 197.457 43.3164 198.035 43.3164C198.605 43.3164 199.062 43.4766 199.406 43.7969C199.758 44.1172 199.934 44.5234 199.934 45.0156C199.934 45.5078 199.758 45.9141 199.406 46.2344C199.062 46.5547 198.605 46.7148 198.035 46.7148C197.457 46.7148 196.996 46.5547 196.652 46.2344C196.309 45.9141 196.137 45.5078 196.137 45.0156ZM205.242 48.3203L207.34 52.1758L209.496 48.3203H213.094L209.508 54.5195L213.258 61H209.648L207.363 56.9219L205.078 61H201.469L205.219 54.5195L201.633 48.3203H205.242ZM220.336 61.2344C219.352 61.2344 218.469 61.0781 217.688 60.7656C216.906 60.4453 216.242 60.0039 215.695 59.4414C215.156 58.8789 214.742 58.2266 214.453 57.4844C214.164 56.7344 214.02 55.9375 214.02 55.0938V54.625C214.02 53.6641 214.156 52.7852 214.43 51.9883C214.703 51.1914 215.094 50.5 215.602 49.9141C216.117 49.3281 216.742 48.8789 217.477 48.5664C218.211 48.2461 219.039 48.0859 219.961 48.0859C220.859 48.0859 221.656 48.2344 222.352 48.5312C223.047 48.8281 223.629 49.25 224.098 49.7969C224.574 50.3438 224.934 51 225.176 51.7656C225.418 52.5234 225.539 53.3672 225.539 54.2969V55.7031H215.461V53.4531H222.223V53.1953C222.223 52.7266 222.137 52.3086 221.965 51.9414C221.801 51.5664 221.551 51.2695 221.215 51.0508C220.879 50.832 220.449 50.7227 219.926 50.7227C219.48 50.7227 219.098 50.8203 218.777 51.0156C218.457 51.2109 218.195 51.4844 217.992 51.8359C217.797 52.1875 217.648 52.6016 217.547 53.0781C217.453 53.5469 217.406 54.0625 217.406 54.625V55.0938C217.406 55.6016 217.477 56.0703 217.617 56.5C217.766 56.9297 217.973 57.3008 218.238 57.6133C218.512 57.9258 218.84 58.168 219.223 58.3398C219.613 58.5117 220.055 58.5977 220.547 58.5977C221.156 58.5977 221.723 58.4805 222.246 58.2461C222.777 58.0039 223.234 57.6406 223.617 57.1562L225.258 58.9375C224.992 59.3203 224.629 59.6875 224.168 60.0391C223.715 60.3906 223.168 60.6797 222.527 60.9062C221.887 61.125 221.156 61.2344 220.336 61.2344ZM231.023 43V61H227.637V43H231.023Z" fill="#888888"/>
<path d="M114.117 84.875H122.344V107.164C122.344 109.82 121.789 112.07 120.68 113.914C119.57 115.742 118.016 117.125 116.016 118.062C114.016 119 111.664 119.469 108.961 119.469C106.289 119.469 103.938 119 101.906 118.062C99.8906 117.125 98.3125 115.742 97.1719 113.914C96.0469 112.07 95.4844 109.82 95.4844 107.164V84.875H103.734V107.164C103.734 108.57 103.938 109.719 104.344 110.609C104.75 111.484 105.344 112.125 106.125 112.531C106.906 112.938 107.852 113.141 108.961 113.141C110.086 113.141 111.031 112.938 111.797 112.531C112.562 112.125 113.141 111.484 113.531 110.609C113.922 109.719 114.117 108.57 114.117 107.164V84.875ZM134.906 99.0547V119H127.008V93.6406H134.414L134.906 99.0547ZM133.969 105.453L132.117 105.5C132.117 103.562 132.352 101.836 132.82 100.32C133.289 98.7891 133.953 97.4922 134.812 96.4297C135.672 95.3672 136.695 94.5625 137.883 94.0156C139.086 93.4531 140.422 93.1719 141.891 93.1719C143.062 93.1719 144.133 93.3438 145.102 93.6875C146.086 94.0312 146.93 94.5859 147.633 95.3516C148.352 96.1172 148.898 97.1328 149.273 98.3984C149.664 99.6484 149.859 101.195 149.859 103.039V119H141.914V103.016C141.914 102 141.773 101.227 141.492 100.695C141.211 100.148 140.805 99.7734 140.273 99.5703C139.742 99.3672 139.094 99.2656 138.328 99.2656C137.516 99.2656 136.828 99.4219 136.266 99.7344C135.703 100.047 135.25 100.484 134.906 101.047C134.578 101.594 134.336 102.242 134.18 102.992C134.039 103.742 133.969 104.562 133.969 105.453ZM162.586 93.6406V119H154.664V93.6406H162.586ZM154.195 87.1016C154.195 85.9766 154.602 85.0547 155.414 84.3359C156.227 83.6172 157.281 83.2578 158.578 83.2578C159.875 83.2578 160.93 83.6172 161.742 84.3359C162.555 85.0547 162.961 85.9766 162.961 87.1016C162.961 88.2266 162.555 89.1484 161.742 89.8672C160.93 90.5859 159.875 90.9453 158.578 90.9453C157.281 90.9453 156.227 90.5859 155.414 89.8672C154.602 89.1484 154.195 88.2266 154.195 87.1016ZM180.82 93.6406V99.125H165.539V93.6406H180.82ZM168.75 87.3359H176.648V110.727C176.648 111.398 176.727 111.922 176.883 112.297C177.039 112.656 177.305 112.914 177.68 113.07C178.07 113.211 178.586 113.281 179.227 113.281C179.68 113.281 180.055 113.273 180.352 113.258C180.648 113.227 180.93 113.188 181.195 113.141V118.789C180.523 119.008 179.82 119.172 179.086 119.281C178.352 119.406 177.57 119.469 176.742 119.469C175.055 119.469 173.609 119.203 172.406 118.672C171.219 118.141 170.312 117.305 169.688 116.164C169.062 115.023 168.75 113.539 168.75 111.711V87.3359ZM211.406 84.875V119H203.18V84.875H211.406ZM221.672 84.875V91.2266H193.148V84.875H221.672ZM234.961 119.469C232.898 119.469 231.055 119.148 229.43 118.508C227.805 117.852 226.43 116.953 225.305 115.812C224.195 114.672 223.344 113.359 222.75 111.875C222.172 110.391 221.883 108.82 221.883 107.164V106.273C221.883 104.414 222.141 102.695 222.656 101.117C223.172 99.5234 223.938 98.1328 224.953 96.9453C225.969 95.7578 227.242 94.8359 228.773 94.1797C230.305 93.5078 232.086 93.1719 234.117 93.1719C235.914 93.1719 237.523 93.4609 238.945 94.0391C240.367 94.6172 241.57 95.4453 242.555 96.5234C243.555 97.6016 244.312 98.9062 244.828 100.438C245.359 101.969 245.625 103.688 245.625 105.594V108.805H224.906V103.859H237.914V103.25C237.93 102.406 237.781 101.688 237.469 101.094C237.172 100.5 236.734 100.047 236.156 99.7344C235.578 99.4219 234.875 99.2656 234.047 99.2656C233.188 99.2656 232.477 99.4531 231.914 99.8281C231.367 100.203 230.938 100.719 230.625 101.375C230.328 102.016 230.117 102.758 229.992 103.602C229.867 104.445 229.805 105.336 229.805 106.273V107.164C229.805 108.102 229.93 108.953 230.18 109.719C230.445 110.484 230.82 111.141 231.305 111.688C231.805 112.219 232.398 112.633 233.086 112.93C233.789 113.227 234.586 113.375 235.477 113.375C236.555 113.375 237.617 113.172 238.664 112.766C239.711 112.359 240.609 111.688 241.359 110.75L244.945 115.016C244.43 115.75 243.695 116.461 242.742 117.148C241.805 117.836 240.68 118.398 239.367 118.836C238.055 119.258 236.586 119.469 234.961 119.469ZM262.125 111.875C262.125 111.438 261.977 111.062 261.68 110.75C261.398 110.422 260.898 110.125 260.18 109.859C259.461 109.578 258.453 109.297 257.156 109.016C255.922 108.75 254.758 108.398 253.664 107.961C252.586 107.523 251.641 106.992 250.828 106.367C250.016 105.742 249.375 105 248.906 104.141C248.453 103.281 248.227 102.297 248.227 101.188C248.227 100.109 248.453 99.0938 248.906 98.1406C249.375 97.1719 250.055 96.3203 250.945 95.5859C251.852 94.8359 252.953 94.25 254.25 93.8281C255.547 93.3906 257.023 93.1719 258.68 93.1719C260.961 93.1719 262.93 93.5234 264.586 94.2266C266.242 94.9141 267.516 95.8828 268.406 97.1328C269.312 98.3672 269.766 99.7969 269.766 101.422H261.867C261.867 100.781 261.758 100.234 261.539 99.7812C261.336 99.3281 261 98.9844 260.531 98.75C260.062 98.5 259.438 98.375 258.656 98.375C258.109 98.375 257.609 98.4766 257.156 98.6797C256.719 98.8828 256.367 99.1641 256.102 99.5234C255.836 99.8828 255.703 100.305 255.703 100.789C255.703 101.133 255.781 101.445 255.938 101.727C256.109 101.992 256.367 102.242 256.711 102.477C257.055 102.695 257.492 102.898 258.023 103.086C258.555 103.258 259.195 103.414 259.945 103.555C261.648 103.867 263.242 104.312 264.727 104.891C266.211 105.469 267.414 106.289 268.336 107.352C269.273 108.414 269.742 109.844 269.742 111.641C269.742 112.766 269.484 113.805 268.969 114.758C268.453 115.695 267.711 116.523 266.742 117.242C265.773 117.945 264.609 118.492 263.25 118.883C261.891 119.273 260.359 119.469 258.656 119.469C256.234 119.469 254.188 119.039 252.516 118.18C250.844 117.305 249.578 116.211 248.719 114.898C247.875 113.57 247.453 112.227 247.453 110.867H254.812C254.844 111.648 255.031 112.289 255.375 112.789C255.734 113.289 256.211 113.656 256.805 113.891C257.398 114.125 258.086 114.242 258.867 114.242C259.586 114.242 260.18 114.141 260.648 113.938C261.133 113.734 261.5 113.461 261.75 113.117C262 112.758 262.125 112.344 262.125 111.875ZM286.805 93.6406V99.125H271.523V93.6406H286.805ZM274.734 87.3359H282.633V110.727C282.633 111.398 282.711 111.922 282.867 112.297C283.023 112.656 283.289 112.914 283.664 113.07C284.055 113.211 284.57 113.281 285.211 113.281C285.664 113.281 286.039 113.273 286.336 113.258C286.633 113.227 286.914 113.188 287.18 113.141V118.789C286.508 119.008 285.805 119.172 285.07 119.281C284.336 119.406 283.555 119.469 282.727 119.469C281.039 119.469 279.594 119.203 278.391 118.672C277.203 118.141 276.297 117.305 275.672 116.164C275.047 115.023 274.734 113.539 274.734 111.711V87.3359ZM298.289 93.6406V119H290.367V93.6406H298.289ZM289.898 87.1016C289.898 85.9766 290.305 85.0547 291.117 84.3359C291.93 83.6172 292.984 83.2578 294.281 83.2578C295.578 83.2578 296.633 83.6172 297.445 84.3359C298.258 85.0547 298.664 85.9766 298.664 87.1016C298.664 88.2266 298.258 89.1484 297.445 89.8672C296.633 90.5859 295.578 90.9453 294.281 90.9453C292.984 90.9453 291.93 90.5859 291.117 89.8672C290.305 89.1484 289.898 88.2266 289.898 87.1016ZM310.922 99.0547V119H303.023V93.6406H310.43L310.922 99.0547ZM309.984 105.453L308.133 105.5C308.133 103.562 308.367 101.836 308.836 100.32C309.305 98.7891 309.969 97.4922 310.828 96.4297C311.688 95.3672 312.711 94.5625 313.898 94.0156C315.102 93.4531 316.438 93.1719 317.906 93.1719C319.078 93.1719 320.148 93.3438 321.117 93.6875C322.102 94.0312 322.945 94.5859 323.648 95.3516C324.367 96.1172 324.914 97.1328 325.289 98.3984C325.68 99.6484 325.875 101.195 325.875 103.039V119H317.93V103.016C317.93 102 317.789 101.227 317.508 100.695C317.227 100.148 316.82 99.7734 316.289 99.5703C315.758 99.3672 315.109 99.2656 314.344 99.2656C313.531 99.2656 312.844 99.4219 312.281 99.7344C311.719 100.047 311.266 100.484 310.922 101.047C310.594 101.594 310.352 102.242 310.195 102.992C310.055 103.742 309.984 104.562 309.984 105.453ZM346.195 93.6406H353.367V118.016C353.367 120.359 352.828 122.344 351.75 123.969C350.672 125.609 349.164 126.852 347.227 127.695C345.305 128.555 343.055 128.984 340.477 128.984C339.336 128.984 338.172 128.836 336.984 128.539C335.797 128.258 334.688 127.836 333.656 127.273C332.625 126.711 331.758 126.016 331.055 125.188L334.359 120.547C335 121.266 335.805 121.875 336.773 122.375C337.742 122.891 338.883 123.148 340.195 123.148C341.336 123.148 342.289 122.945 343.055 122.539C343.836 122.133 344.43 121.539 344.836 120.758C345.242 119.992 345.445 119.062 345.445 117.969V99.6406L346.195 93.6406ZM329.344 106.625V106.133C329.344 104.211 329.578 102.461 330.047 100.883C330.531 99.2891 331.219 97.9219 332.109 96.7812C333.016 95.625 334.109 94.7344 335.391 94.1094C336.672 93.4844 338.117 93.1719 339.727 93.1719C341.461 93.1719 342.883 93.5078 343.992 94.1797C345.117 94.8359 346.016 95.7578 346.688 96.9453C347.375 98.1328 347.906 99.5234 348.281 101.117C348.672 102.695 349 104.398 349.266 106.227V106.812C349 108.531 348.633 110.156 348.164 111.688C347.711 113.203 347.117 114.547 346.383 115.719C345.648 116.891 344.727 117.812 343.617 118.484C342.523 119.141 341.211 119.469 339.68 119.469C338.086 119.469 336.648 119.148 335.367 118.508C334.102 117.867 333.016 116.969 332.109 115.812C331.219 114.656 330.531 113.297 330.047 111.734C329.578 110.172 329.344 108.469 329.344 106.625ZM337.242 106.133V106.625C337.242 107.578 337.328 108.461 337.5 109.273C337.688 110.086 337.969 110.805 338.344 111.43C338.719 112.039 339.18 112.516 339.727 112.859C340.289 113.203 340.945 113.375 341.695 113.375C342.836 113.375 343.758 113.133 344.461 112.648C345.164 112.164 345.672 111.477 345.984 110.586C346.297 109.695 346.43 108.648 346.383 107.445V105.594C346.414 104.562 346.344 103.656 346.172 102.875C346 102.078 345.727 101.414 345.352 100.883C344.992 100.352 344.508 99.9531 343.898 99.6875C343.305 99.4062 342.586 99.2656 341.742 99.2656C341.008 99.2656 340.359 99.4375 339.797 99.7812C339.234 100.125 338.766 100.609 338.391 101.234C338.016 101.844 337.727 102.57 337.523 103.414C337.336 104.242 337.242 105.148 337.242 106.133Z" fill="black"/>
<path d="M1134 0H1348C1356.28 0 1363 6.71573 1363 15V148C1363 156.284 1356.28 163 1348 163H1134V0Z" fill="#23488A"/>
<path d="M1210.62 43.625H1286.38V119.375H1210.62V43.625Z" fill="white" fill-opacity="0.01"/>
<path d="M1276.91 72.0312V105.172C1276.91 107.787 1274.79 109.906 1272.17 109.906H1224.83C1222.21 109.906 1220.09 107.787 1220.09 105.172V57.8281C1220.09 55.2134 1222.21 53.0938 1224.83 53.0938H1261.12" stroke="white" stroke-width="7.24" stroke-linecap="round" stroke-linejoin="round"/>
<path d="M1232.72 75.1875L1248.5 87.8125L1276.91 53.0938" stroke="white" stroke-width="7.24" stroke-linecap="round" stroke-linejoin="round"/>
</svg>
